<?xml version="1.0" encoding="UTF-8"?>
<svg version="1.1" xmlns="http://www.w3.org/2000/svg" width="30" height="30" viewBox="0 0 300 300">
<path d="M0 0 C2.69730758 0.0009686 5.39172675 -0.04068097 8.08862305 -0.08496094 C28.1580322 -0.22536521 43.1976045 5.17564398 57.78198242 19.43847656 C61.34294651 23.12290473 61.34294651 23.12290473 62.53198242 25.50097656 C64.36802597 26.00919342 66.22784659 26.43267351 68.09448242 26.81347656 C74.39067822 28.3257614 79.74602393 30.0264431 83.90698242 35.21582031 C87.08919255 40.61894793 87.31983854 46.37218884 86.53198242 52.50097656 C85.50854492 55.33300781 85.50854492 55.33300781 84.53198242 57.50097656 C85.19584961 57.80390625 85.8597168 58.10683594 86.54370117 58.41894531 C93.92933495 61.92307813 99.26275101 65.55508607 102.80932617 73.12207031 C104.80762863 79.70026598 104.31617427 87.23654491 101.53198242 93.50097656 C102.06307617 93.91347656 102.59416992 94.32597656 103.14135742 94.75097656 C109.24992479 99.74484186 112.92158751 104.70485912 114.53198242 112.50097656 C115.4091166 121.32292221 113.2501412 129.06387294 107.87182617 136.12597656 C106.0046218 138.04217463 104.0979449 138.84115764 101.53198242 139.50097656 C101.86198242 140.24347656 102.19198242 140.98597656 102.53198242 141.75097656 C104.6013994 149.51129022 104.56606483 157.29330462 100.86791992 164.53222656 C97.53063858 169.45032538 92.69307963 172.68583263 87.53198242 175.50097656 C88.01538086 176.55671875 88.01538086 176.55671875 88.50854492 177.63378906 C90.41262423 182.96811811 90.57150238 189.23475762 88.84448242 194.66113281 C86.30436701 199.47676828 82.47366391 203.57187618 77.23852539 205.2253418 C74.59418262 205.79002181 71.94420655 206.27807375 69.28198242 206.75097656 C61.39615936 208.37957777 56.52332626 210.13927717 50.91088867 216.15332031 C41.98952812 224.9574873 29.65654157 228.86570795 17.53198242 230.50097656 C17.07758789 232.31082031 17.07758789 232.31082031 16.61401367 234.15722656 C12.598073 249.65490822 12.598073 249.65490822 7.53198242 256.50097656 C5.44371542 259.99436002 4.80640428 263.5278557 4.03198242 267.50097656 C2.57423594 274.9798498 2.57423594 274.9798498 0.53198242 278.50097656 C-0.12801758 278.50097656 -0.78801758 278.50097656 -1.46801758 278.50097656 C-1.31429687 277.6550293 -1.31429687 277.6550293 -1.1574707 276.79199219 C1.14130001 266.05816679 1.14130001 266.05816679 -0.87036133 255.74316406 C-2.88242453 253.83102727 -2.88242453 253.83102727 -5.17895508 252.19628906 C-7.74632042 250.29486149 -9.22649706 248.37875074 -11.03051758 245.75097656 C-11.60415039 244.91824219 -12.1777832 244.08550781 -12.76879883 243.22753906 C-14.46801758 240.50097656 -14.46801758 240.50097656 -16.07348633 237.33691406 C-18.93717597 231.74557703 -20.7953681 228.14163583 -26.90551758 226.00097656 C-28.75919159 225.49915321 -30.61334298 224.99908917 -32.46801758 224.50097656 C-35.20726815 223.2777892 -37.81382143 221.9031934 -40.46801758 220.50097656 C-41.62353211 222.22368883 -42.76705876 223.95444573 -43.90551758 225.68847656 C-44.54360352 226.65140625 -45.18168945 227.61433594 -45.83911133 228.60644531 C-47.38347945 231.35075414 -48.06618398 233.40515999 -48.46801758 236.50097656 C-49.45801758 236.50097656 -50.44801758 236.50097656 -51.46801758 236.50097656 C-51.46801758 235.84097656 -51.46801758 235.18097656 -51.46801758 234.50097656 C-52.78801758 234.50097656 -54.10801758 234.50097656 -55.46801758 234.50097656 C-55.46801758 233.51097656 -55.46801758 232.52097656 -55.46801758 231.50097656 C-54.88665039 231.27152344 -54.3052832 231.04207031 -53.70629883 230.80566406 C-50.88211008 229.15945282 -49.53360053 227.29087743 -47.65551758 224.62597656 C-46.71772461 223.33046875 -46.71772461 223.33046875 -45.76098633 222.00878906 C-44.28385389 219.65726927 -44.28385389 219.65726927 -44.56958008 217.38769531 C-46.27747622 213.80111341 -49.11698248 211.54225158 -52.46801758 209.50097656 C-57.44177345 209.27489675 -62.37307796 211.87071649 -66.97973633 213.66113281 C-69.46801758 214.50097656 -69.46801758 214.50097656 -72.46801758 214.50097656 C-72.46801758 215.49097656 -72.46801758 216.48097656 -72.46801758 217.50097656 C-73.78801758 217.50097656 -75.10801758 217.50097656 -76.46801758 217.50097656 C-77.12801758 215.19097656 -77.78801758 212.88097656 -78.46801758 210.50097656 C-77.66364258 210.56285156 -76.85926758 210.62472656 -76.03051758 210.68847656 C-71.49153025 210.44958249 -67.69900157 209.08054392 -63.46801758 207.50097656 C-64.03649414 207.28183594 -64.6049707 207.06269531 -65.19067383 206.83691406 C-72.08792659 204.00431944 -78.3310967 200.7960045 -81.46801758 193.68847656 C-83.20278035 188.18800924 -82.2577138 182.87006522 -80.46801758 177.50097656 C-86.56317207 181.32538722 -91.32082834 185.51282781 -92.99536133 192.79394531 C-93.23995923 194.68706609 -93.36590381 196.59485296 -93.46801758 198.50097656 C-94.45801758 198.50097656 -95.44801758 198.50097656 -96.46801758 198.50097656 C-97.15146715 190.29958164 -95.22185397 185.25620801 -90.40551758 178.68847656 C-88.81212708 176.88948729 -87.2098108 175.15568013 -85.46801758 173.50097656 C-86.39614258 172.90285156 -87.32426758 172.30472656 -88.28051758 171.68847656 C-91.46801758 169.50097656 -91.46801758 169.50097656 -93.03051758 167.68847656 C-94.4706668 166.23419287 -94.4706668 166.23419287 -96.90551758 166.56347656 C-99.90941952 167.66246508 -101.30652919 169.19042001 -103.46801758 171.50097656 C-104.12801758 171.50097656 -104.78801758 171.50097656 -105.46801758 171.50097656 C-105.16902543 167.91307081 -104.69815157 166.71930881 -102.03051758 164.18847656 C-99.46801758 162.50097656 -99.46801758 162.50097656 -97.46801758 162.50097656 C-97.6355957 161.72753906 -97.80317383 160.95410156 -97.97583008 160.15722656 C-99.42081773 152.76766944 -99.91592743 147.39679627 -96.46801758 140.50097656 C-97.27239258 140.16066406 -97.27239258 140.16066406 -98.09301758 139.81347656 C-103.81806977 136.64963193 -107.35354347 133.31219502 -109.77270508 127.22363281 C-111.78674321 119.33720259 -111.61775989 110.76437132 -107.81567383 103.47363281 C-105.11504682 99.52054111 -101.7957154 95.66482547 -97.46801758 93.50097656 C-97.6355957 92.66695313 -97.80317383 91.83292969 -97.97583008 90.97363281 C-99.63520002 81.80508877 -100.18062363 75.06423445 -94.78051758 67.18847656 C-91.76029979 63.47982678 -88.81479188 61.46932719 -84.46801758 59.50097656 C-83.47801758 59.50097656 -82.48801758 59.50097656 -81.46801758 59.50097656 C-81.94239258 58.75847656 -82.41676758 58.01597656 -82.90551758 57.25097656 C-85.52627966 52.63843531 -85.98255449 48.81785802 -85.46801758 43.50097656 C-83.26495957 37.56826019 -80.90324514 32.97227523 -75.46801758 29.50097656 C-72.29152386 28.34887105 -69.06407601 27.53784286 -65.78051758 26.75097656 C-64.91362305 26.53054687 -64.04672852 26.31011719 -63.15356445 26.08300781 C-56.84017887 24.50097656 -56.84017887 24.50097656 -54.46801758 24.50097656 C-54.22567383 23.92863281 -53.98333008 23.35628906 -53.73364258 22.76660156 C-48.11755029 12.71310303 -34.45420479 5.31196745 -23.78833008 1.80566406 C-15.98396749 -0.1835657 -8.00391654 -0.0202028 0 0 Z " fill="#9B9A9A" transform="translate(156.468017578125,20.4990234375)"/>
<path d="M0 0 C7.00891628 5.00636877 13.48617197 13.32989402 15 22 C15.88747075 35.82736678 14.60493443 48.15477583 5.1796875 59.1171875 C-1.26624241 65.19776106 -8.33617435 68.17229174 -17.1875 68.4375 C-25.32864288 68.13520404 -32.14088555 65.08223242 -37.82421875 59.0703125 C-39.02667611 57.69391477 -40.21534968 56.30529383 -41.38671875 54.90234375 C-42.83803085 53.19099026 -44.41333092 51.58666908 -46 50 C-51.94 53.96 -57.88 57.92 -64 62 C-62.35 63.32 -60.7 64.64 -59 66 C-58.34 66.66 -57.68 67.32 -57 68 C-54.51844158 68.27997552 -52.13021168 68.44329896 -49.640625 68.52734375 C-48.11588236 68.59824153 -46.59114288 68.66920745 -45.06640625 68.74023438 C-42.67769624 68.840027 -40.28888356 68.93598521 -37.89990234 69.02905273 C-28.62569555 69.40387633 -19.9941737 70.20794637 -10.94042969 72.34741211 C6.94282286 76.31635383 28.67902295 71.49439741 46.3203125 68.23339844 C47.28066406 68.05969727 48.24101562 67.88599609 49.23046875 67.70703125 C50.08020264 67.5469458 50.92993652 67.38686035 51.80541992 67.22192383 C54 67 54 67 57 68 C55.02 69.32 53.04 70.64 51 72 C51.48339844 73.05574219 51.48339844 73.05574219 51.9765625 74.1328125 C53.88064181 79.46714155 54.03951995 85.73378106 52.3125 91.16015625 C49.77238459 95.97579172 45.94168149 100.07089962 40.70654297 101.72436523 C38.0622002 102.28904525 35.41222413 102.77709719 32.75 103.25 C24.86417693 104.87860121 19.99134384 106.63830061 14.37890625 112.65234375 C5.45754569 121.45651074 -6.87544085 125.36473139 -19 127 C-19.45439453 128.80984375 -19.45439453 128.80984375 -19.91796875 130.65625 C-23.93390943 146.15393166 -23.93390943 146.15393166 -29 153 C-31.088267 156.49338346 -31.72557814 160.02687914 -32.5 164 C-33.95774648 171.47887324 -33.95774648 171.47887324 -36 175 C-36.66 175 -37.32 175 -38 175 C-37.8462793 174.15405273 -37.8462793 174.15405273 -37.68945312 173.29101562 C-35.39068242 162.55719023 -35.39068242 162.55719023 -37.40234375 152.2421875 C-39.41440695 150.33005071 -39.41440695 150.33005071 -41.7109375 148.6953125 C-44.27830284 146.79388493 -45.75847948 144.87777418 -47.5625 142.25 C-48.13613281 141.41726563 -48.70976562 140.58453125 -49.30078125 139.7265625 C-51 137 -51 137 -52.60546875 133.8359375 C-55.4691584 128.24460047 -57.32735052 124.64065927 -63.4375 122.5 C-65.29117401 121.99817665 -67.1453254 121.49811261 -69 121 C-71.73925057 119.77681264 -74.34580385 118.40221683 -77 117 C-78.15551453 118.72271227 -79.29904119 120.45346917 -80.4375 122.1875 C-81.07558594 123.15042969 -81.71367188 124.11335937 -82.37109375 125.10546875 C-83.91546187 127.84977757 -84.59816641 129.90418343 -85 133 C-85.99 133 -86.98 133 -88 133 C-88 132.34 -88 131.68 -88 131 C-89.32 131 -90.64 131 -92 131 C-92 130.01 -92 129.02 -92 128 C-91.41863281 127.77054688 -90.83726563 127.54109375 -90.23828125 127.3046875 C-87.4140925 125.65847626 -86.06558295 123.78990087 -84.1875 121.125 C-83.56230469 120.26132813 -82.93710938 119.39765625 -82.29296875 118.5078125 C-80.81583631 116.15629271 -80.81583631 116.15629271 -81.1015625 113.88671875 C-82.80945864 110.30013685 -85.6489649 108.04127502 -89 106 C-93.97375587 105.77392019 -98.90506038 108.36973993 -103.51171875 110.16015625 C-106 111 -106 111 -109 111 C-109 111.99 -109 112.98 -109 114 C-110.32 114 -111.64 114 -113 114 C-113.66 111.69 -114.32 109.38 -115 107 C-113.7934375 107.0928125 -113.7934375 107.0928125 -112.5625 107.1875 C-108.02351267 106.94860593 -104.23098399 105.57956736 -100 104 C-100.56847656 103.78085938 -101.13695312 103.56171875 -101.72265625 103.3359375 C-108.61990901 100.50334288 -114.86307912 97.29502794 -118 90.1875 C-119.73476277 84.68703268 -118.78969622 79.36908866 -117 74 C-123.09515449 77.82441066 -127.85281076 82.01185125 -129.52734375 89.29296875 C-129.77194166 91.18608952 -129.89788624 93.0938764 -130 95 C-130.99 95 -131.98 95 -133 95 C-133.68344958 86.79860508 -131.75383639 81.75523145 -126.9375 75.1875 C-125.3441095 73.38851073 -123.74179322 71.65470356 -122 70 C-122.928125 69.401875 -123.85625 68.80375 -124.8125 68.1875 C-128 66 -128 66 -129.5625 64.1875 C-131.00264922 62.73321631 -131.00264922 62.73321631 -133.4375 63.0625 C-136.44140194 64.16148852 -137.83851162 65.68944345 -140 68 C-140.66 68 -141.32 68 -142 68 C-141.70100785 64.41209425 -141.23013399 63.21833224 -138.5625 60.6875 C-136 59 -136 59 -134 59 C-134.16757813 58.2265625 -134.33515625 57.453125 -134.5078125 56.65625 C-135.80111727 50.04238761 -136.2126171 45.39200496 -134 39 C-133.34 39 -132.68 39 -132 39 C-132 38.34 -132 37.68 -132 37 C-127.4602784 36.82539532 -123.34343362 37.04607318 -118.875 37.875 C-102.35790944 40.71927144 -85.91015897 41.18863609 -69.1875 41.1875 C-67.85155289 41.18885956 -67.85155289 41.18885956 -66.48861694 41.19024658 C-63.94414925 41.18995334 -61.39989988 41.18106256 -58.85546875 41.16796875 C-58.07731812 41.16676529 -57.29916748 41.16556183 -56.49743652 41.1643219 C-52.95396361 41.45786809 -52.95396361 41.45786809 -50 40 C-49.83901884 37.85656566 -49.72207822 35.7097777 -49.625 33.5625 C-48.80687704 21.67565463 -45.5812816 11.38361059 -36.7890625 2.85546875 C-24.76769984 -6.88880985 -13.49746863 -7.34819209 0 0 Z " fill="#777777" transform="translate(193,124)"/>
<path d="M0 0 C14.32365503 4.71601952 14.32365503 4.71601952 18.8125 12.5 C22.09157847 19.47061965 21.96075642 26.39716341 20 33.75 C19.67 34.4925 19.34 35.235 19 36 C19.79664063 36.61875 19.79664063 36.61875 20.609375 37.25 C26.71794237 42.2438653 30.38960508 47.20388256 32 55 C32.87713417 63.82194564 30.71815878 71.56289638 25.33984375 78.625 C23.47263938 80.54119807 21.56596248 81.34018108 19 82 C19.33 82.7425 19.66 83.485 20 84.25 C22.07747115 92.04051681 22.06373717 99.87202929 18.23046875 107.09375 C16.16000872 110.30131982 14.50607186 112.49283614 11 114 C7.29467458 114.75422009 3.59831026 115.23044034 -0.16015625 115.60546875 C-3.35048313 115.93326429 -6.41611004 116.40177491 -9.5625 117 C-25.8022898 119.76142175 -44.17198939 122.37561329 -60.3515625 118.53125 C-65.86250785 117.29410647 -71.10218063 116.68177726 -76.7421875 116.48046875 C-77.48845398 116.45265823 -78.23472046 116.42484772 -79.00360107 116.39619446 C-82.07277383 116.29131029 -85.14150492 116.20167641 -88.21191406 116.14233398 C-103.89765643 115.80169732 -103.89765643 115.80169732 -109.85205078 110.27075195 C-110.23087402 109.85140381 -110.60969727 109.43205566 -111 109 C-107.2567748 104.97048607 -103.35278875 102.07507831 -98.6875 99.1875 C-98.04232422 98.78080078 -97.39714844 98.37410156 -96.73242188 97.95507812 C-95.15863345 96.9641743 -93.57982788 95.98124628 -92 95 C-89.03523302 97.90911436 -86.24819045 100.84429318 -83.625 104.0625 C-78.87196232 109.55075702 -73.63500202 112.58543237 -66.3359375 113.23828125 C-56.93414961 113.47394612 -48.72282859 111.58729449 -41.66796875 105.03515625 C-32.47986767 93.82438186 -31.03141212 81.91492448 -32 68 C-32.84449213 64.31318866 -34.11735824 61.27109006 -36 58 C-36.4125 57.28328125 -36.825 56.5665625 -37.25 55.828125 C-41.88391703 48.8245913 -49.76091101 43.68144673 -58 42 C-63.9181874 41.31315154 -68.35593898 41.32543088 -73.5 44.5 C-85.46198262 51.13927652 -104.32316141 46.7810764 -117.32080078 45.29882812 C-119.08827997 45.10168993 -120.85760129 44.9203417 -122.62841797 44.75585938 C-136.01410201 43.4973544 -136.01410201 43.4973544 -140.4453125 40.15625 C-143.77729338 35.75493572 -144.9438733 30.96810796 -144.5859375 25.48828125 C-143.08017168 19.09379572 -138.74390246 14.17008164 -133.74926567 10.07992935 C-130.74197596 8.22334434 -127.60841463 8.32361424 -124.19165039 8.38818359 C-123.43102295 8.38251877 -122.67039551 8.37685394 -121.88671875 8.37101746 C-119.37319379 8.35753218 -116.86111864 8.37849052 -114.34765625 8.3984375 C-112.56960584 8.39292335 -110.79156185 8.38478621 -109.01353455 8.37417603 C-104.31531401 8.35127243 -99.61755757 8.35548934 -94.91931152 8.36798096 C-86.60368366 8.38841204 -78.28820548 8.37601826 -69.97265625 8.3359375 C-69.07355215 8.33202059 -68.17444805 8.32810368 -67.24809837 8.32406807 C-44.63532424 8.19403101 -22.22740344 6.29912741 0 2 C0 1.34 0 0.68 0 0 Z " fill="#BABABA" transform="translate(239,78)"/>
<path d="M0 0 C0.99 0.33 1.98 0.66 3 1 C3 1.99 3 2.98 3 4 C3.33 4.99 3.66 5.98 4 7 C4.66517474 14.45868065 4.66431104 19.98549366 0 26 C-4.99826163 31.08390163 -9.35698653 32.02556311 -16.25 33.25 C-24.13582307 34.87860121 -29.00865616 36.63830061 -34.62109375 42.65234375 C-43.54245431 51.45651074 -55.87544085 55.36473139 -68 57 C-68.45439453 58.80984375 -68.45439453 58.80984375 -68.91796875 60.65625 C-72.93390943 76.15393166 -72.93390943 76.15393166 -78 83 C-80.088267 86.49338346 -80.72557814 90.02687914 -81.5 94 C-82.95774648 101.47887324 -82.95774648 101.47887324 -85 105 C-85.66 105 -86.32 105 -87 105 C-86.89751953 104.43603516 -86.79503906 103.87207031 -86.68945312 103.29101562 C-84.39068242 92.55719023 -84.39068242 92.55719023 -86.40234375 82.2421875 C-88.41440695 80.33005071 -88.41440695 80.33005071 -90.7109375 78.6953125 C-93.27830284 76.79388493 -94.75847948 74.87777418 -96.5625 72.25 C-97.13613281 71.41726563 -97.70976562 70.58453125 -98.30078125 69.7265625 C-100 67 -100 67 -101.60546875 63.8359375 C-104.4691584 58.24460047 -106.32735052 54.64065927 -112.4375 52.5 C-114.29117401 51.99817665 -116.1453254 51.49811261 -118 51 C-120.73925057 49.77681264 -123.34580385 48.40221683 -126 47 C-127.15551453 48.72271227 -128.29904119 50.45346917 -129.4375 52.1875 C-130.07558594 53.15042969 -130.71367187 54.11335938 -131.37109375 55.10546875 C-132.91546187 57.84977757 -133.59816641 59.90418343 -134 63 C-134.99 63 -135.98 63 -137 63 C-137 62.34 -137 61.68 -137 61 C-138.32 61 -139.64 61 -141 61 C-141 60.01 -141 59.02 -141 58 C-140.12794922 57.65582031 -140.12794922 57.65582031 -139.23828125 57.3046875 C-136.4140925 55.65847626 -135.06558295 53.78990087 -133.1875 51.125 C-132.24970703 49.82949219 -132.24970703 49.82949219 -131.29296875 48.5078125 C-129.8168173 46.154697 -129.8168173 46.154697 -130.09375 43.875 C-131.18461161 41.61804495 -132.37528094 40.4596203 -134.3125 38.875 C-134.90675781 38.37742188 -135.50101562 37.87984375 -136.11328125 37.3671875 C-138.00252656 35.99816916 -139.8865777 34.97973219 -142 34 C-140.7625 33.7525 -140.7625 33.7525 -139.5 33.5 C-135.19922026 31.65680868 -133.03515281 29.09421729 -130.02734375 25.58203125 C-128 24 -128 24 -125.37890625 24.19921875 C-123 25 -123 25 -121 26 C-121.144375 26.67546875 -121.28875 27.3509375 -121.4375 28.046875 C-121.623125 28.93890625 -121.80875 29.8309375 -122 30.75 C-122.185625 31.63171875 -122.37125 32.5134375 -122.5625 33.421875 C-123.11153675 36.22143965 -123.11153675 36.22143965 -123 40 C-122.51891725 38.58398286 -122.04021859 37.16715563 -121.5625 35.75 C-121.29566406 34.96109375 -121.02882813 34.1721875 -120.75390625 33.359375 C-120.0846051 31.2647745 -119.53332008 29.13328033 -119 27 C-115.04 27 -111.08 27 -107 27 C-107 26.34 -107 25.68 -107 25 C-108.32 24.67 -109.64 24.34 -111 24 C-111.33 22.68 -111.66 21.36 -112 20 C-108.62294375 20.53725895 -105.303314 21.11064623 -102 22 C-99.50209265 18.30744131 -98.62567104 15.38577176 -98 11 C-94.08348097 10.91140125 -90.16722626 10.85908083 -86.25 10.8125 C-84.61224609 10.77479492 -84.61224609 10.77479492 -82.94140625 10.73632812 C-73.75487559 10.65479087 -65.25366342 11.80392615 -57 16 C-54.33486884 16.72274743 -51.69003378 17.38802103 -49 18 C-48.25049072 18.17370117 -47.50098145 18.34740234 -46.72875977 18.52636719 C-40.52527616 19.93802553 -34.29567097 21.07809057 -28 22 C-32.25225167 17.62625542 -36.36588757 13.50404997 -42 11 C-42 10.34 -42 9.68 -42 9 C-40.18242187 8.83564453 -40.18242187 8.83564453 -38.328125 8.66796875 C-29.14202054 7.80925562 -20.00119662 6.8004056 -10.875 5.4375 C-10.01680664 5.31076904 -9.15861328 5.18403809 -8.27441406 5.0534668 C-4.0093404 4.46746325 -4.0093404 4.46746325 0 3 C0 2.01 0 1.02 0 0 Z " fill="#7B7771" transform="translate(242,194)"/>
<path d="M0 0 C0.08636719 0.59296875 0.17273438 1.1859375 0.26171875 1.796875 C1.2039174 4.60851542 2.47411482 5.46258869 4.8125 7.25 C10.43390744 11.9345062 13.47647347 17.73453129 14.203125 25.04296875 C14.38163716 33.20989987 12.31551548 40.09159518 7.33984375 46.625 C5.47263938 48.54119807 3.56596248 49.34018108 1 50 C1.33 50.7425 1.66 51.485 2 52.25 C4.07747115 60.04051681 4.06373717 67.87202929 0.23046875 75.09375 C-1.83999128 78.30131982 -3.49392814 80.49283614 -7 82 C-10.70532542 82.75422009 -14.40168974 83.23044034 -18.16015625 83.60546875 C-21.35048313 83.93326429 -24.41611004 84.40177491 -27.5625 85 C-43.8022898 87.76142175 -62.17198939 90.37561329 -78.3515625 86.53125 C-83.86250785 85.29410647 -89.10218063 84.68177726 -94.7421875 84.48046875 C-95.48845398 84.45265823 -96.23472046 84.42484772 -97.00360107 84.39619446 C-100.07277383 84.29131029 -103.14150492 84.20167641 -106.21191406 84.14233398 C-121.89765643 83.80169732 -121.89765643 83.80169732 -127.85205078 78.27075195 C-128.23087402 77.85140381 -128.60969727 77.43205566 -129 77 C-125.2567748 72.97048607 -121.35278875 70.07507831 -116.6875 67.1875 C-116.04232422 66.78080078 -115.39714844 66.37410156 -114.73242188 65.95507812 C-113.15863345 64.9641743 -111.57982788 63.98124628 -110 63 C-107.03523302 65.90911436 -104.24819045 68.84429318 -101.625 72.0625 C-96.87196232 77.55075702 -91.63500202 80.58543237 -84.3359375 81.23828125 C-74.93414961 81.47394612 -66.72282859 79.58729449 -59.66796875 73.03515625 C-50.47986767 61.82438186 -49.03141212 49.91492448 -50 36 C-51.92392839 27.60067836 -56.97024177 20.96913663 -63 15 C-62.37359619 14.91024902 -61.74719238 14.82049805 -61.10180664 14.72802734 C-48.81404046 12.93808154 -36.64693269 10.87685397 -24.5625 8 C-23.5526001 7.7632959 -22.5427002 7.5265918 -21.50219727 7.28271484 C-15.81892322 5.88848129 -10.46749771 4.14069545 -5.07397461 1.8671875 C-3.41126141 1.17196004 -1.70972534 0.56990845 0 0 Z " fill="#BABAB9" transform="translate(257,110)"/>
<path d="M0 0 C0.37769531 0.46664062 0.75539063 0.93328125 1.14453125 1.4140625 C3.56761082 3.48515788 5.57337526 3.76094723 8.6875 4.375 C14.95086448 5.85185136 20.24072218 7.55874158 24.375 12.71484375 C27.53635872 18.08256741 27.84695965 23.90386021 27 30 C25 33 25 33 23.11157227 33.67773438 C15.75176954 34.9763886 8.37522231 35.78641779 0.9375 36.5 C-1.49101469 36.73826937 -3.91939942 36.97786692 -6.34765625 37.21875 C-7.52365387 37.33376862 -8.69965149 37.44878723 -9.9112854 37.56729126 C-13.21978809 37.90424227 -16.51202416 38.32963605 -19.80842686 38.77018929 C-29.52015928 40.02970891 -39.06641453 40.26264445 -48.84765625 40.1953125 C-50.48245569 40.19156826 -52.11725742 40.18872799 -53.75205994 40.18673706 C-57.99173515 40.17921138 -62.23126663 40.15966248 -66.47088623 40.1373291 C-70.82236793 40.11662777 -75.17387356 40.10768419 -79.52539062 40.09765625 C-88.01699201 40.07640247 -96.50847798 40.04240592 -105 40 C-107.49722643 35.23199904 -107.85069364 31.33407902 -107 26 C-102.95089099 15.77715443 -93.74122626 7.78491572 -84 3 C-81.00617827 2.28677423 -78.12065148 2.21219112 -75.05078125 2.19140625 C-73.71941887 2.1550985 -73.71941887 2.1550985 -72.36116028 2.11805725 C-69.24042638 2.04632434 -66.12149241 2.01937263 -63 2 C-61.1717569 1.98389679 -61.1717569 1.98389679 -59.30657959 1.96746826 C-50.3219746 1.89756387 -41.33840139 1.90296574 -32.3536377 1.93133545 C-28.69214472 1.94175559 -25.0306443 1.94617216 -21.36914062 1.95117188 C-14.24607626 1.96174398 -7.12304107 1.97870086 0 2 C0 1.34 0 0.68 0 0 Z " fill="#BABAB9" transform="translate(216,43)"/>
<path d="M0 0 C7.9950343 4.35259747 14.42141555 12.32606016 17.296875 21.0234375 C19.66363138 34.57849677 17.41041564 47.04397144 9.7265625 58.484375 C4.16938477 64.94787356 -2.83672999 68.87335296 -11.33203125 69.828125 C-20.24703877 70.09524133 -26.16028407 67.96743077 -33.2734375 62.484375 C-37.40430105 58.43016665 -40.4842931 55.37733644 -41.2734375 49.484375 C-38.50302493 47.94195135 -35.73205709 46.40052803 -32.9609375 44.859375 C-32.13295654 44.39861572 -31.30497559 43.93785645 -30.4519043 43.46313477 C-26.17797574 41.08752367 -21.8949029 38.73352361 -17.5859375 36.421875 C-13.09068623 33.96419089 -8.6370575 31.4391377 -4.2109375 28.859375 C-3.55456299 28.48675537 -2.89818848 28.11413574 -2.22192383 27.73022461 C1.14184869 25.74412748 3.47701422 24.29334287 4.7265625 20.484375 C-11.90921528 22.8043304 -27.603543 26.15230132 -40.7734375 37.359375 C-43.2734375 39.484375 -43.2734375 39.484375 -45.2734375 39.484375 C-45.78926144 24.98399082 -44.24263617 15.64573087 -34.2734375 4.484375 C-23.30476828 -4.67747516 -13.00313511 -5.67791884 0 0 Z " fill="#323232" transform="translate(190.2734375,122.515625)"/>
<path d="M0 0 C0.33 0.66 0.66 1.32 1 2 C3.27974262 2.41803813 3.27974262 2.41803813 5.99609375 2.53515625 C9.5034111 2.79272399 12.94269654 3.09517151 16.41015625 3.68359375 C36.09679016 6.920543 56.09735521 7.22811773 76 8 C75.58522903 8.48002472 75.17045807 8.96004944 74.74311829 9.45462036 C74.20051865 10.08463959 73.65791901 10.71465881 73.09887695 11.36376953 C72.56035599 11.98816925 72.02183502 12.61256897 71.46699524 13.25588989 C70.40078852 14.52350267 69.3909264 15.83916808 68.41796875 17.1796875 C66.39407641 19.96816139 65.01638606 21.7179487 61.62109375 22.66015625 C59.39259217 22.90776754 57.24066446 23.03485478 55 23 C54.89042969 23.85722656 54.78085938 24.71445313 54.66796875 25.59765625 C53.21323334 36.08830914 53.21323334 36.08830914 51.375 40 C49.97128083 43.06266 49.37550613 44.69910385 50 48 C51.9375006 50.18777466 51.9375006 50.18777466 54 52 C54 52.66 54 53.32 54 54 C52.40288354 55.39131742 50.74647316 56.71517335 49.0625 58 C45.48783076 60.54336771 45.48783076 60.54336771 43 64 C42.01 64.33 41.02 64.66 40 65 C40.33 65.66 40.66 66.32 41 67 C38.89828133 67.8394882 36.79353375 68.67139656 34.6875 69.5 C32.92986328 70.19609375 32.92986328 70.19609375 31.13671875 70.90625 C28 72 28 72 25 72 C25 72.99 25 73.98 25 75 C23.68 75 22.36 75 21 75 C20.34 72.69 19.68 70.38 19 68 C20.2065625 68.0928125 20.2065625 68.0928125 21.4375 68.1875 C25.97648733 67.94860593 29.76901601 66.57956736 34 65 C33.43152344 64.78085938 32.86304688 64.56171875 32.27734375 64.3359375 C25.38009099 61.50334288 19.13692088 58.29502794 16 51.1875 C14.26523723 45.68703268 15.21030378 40.36908866 17 35 C10.90484551 38.82441066 6.14718924 43.01185125 4.47265625 50.29296875 C4.22805834 52.18608952 4.10211376 54.0938764 4 56 C3.01 56 2.02 56 1 56 C0.31655042 47.79860508 2.24616361 42.75523145 7.0625 36.1875 C8.6558905 34.38851073 10.25820678 32.65470356 12 31 C11.071875 30.401875 10.14375 29.80375 9.1875 29.1875 C6 27 6 27 4.4375 25.1875 C2.99735078 23.73321631 2.99735078 23.73321631 0.5625 24.0625 C-2.44140194 25.16148852 -3.83851162 26.68944345 -6 29 C-6.66 29 -7.32 29 -8 29 C-7.70100785 25.41209425 -7.23013399 24.21833224 -4.5625 21.6875 C-2 20 -2 20 0 20 C-0.16757812 19.2265625 -0.33515625 18.453125 -0.5078125 17.65625 C-1.80111727 11.04238761 -2.2126171 6.39200496 0 0 Z " fill="#B5B5B5" transform="translate(59,163)"/>
<path d="M0 0 C2.12988266 6.38964799 1.90514727 13.69087085 -0.625 19.9375 C-2.72473968 23.89332356 -4.78565426 27.18836868 -9 29 C-12.70532542 29.75422009 -16.40168974 30.23044034 -20.16015625 30.60546875 C-23.35048313 30.93326429 -26.41611004 31.40177491 -29.5625 32 C-45.8022898 34.76142175 -64.17198939 37.37561329 -80.3515625 33.53125 C-85.86250785 32.29410647 -91.10218063 31.68177726 -96.7421875 31.48046875 C-97.48845398 31.45265823 -98.23472046 31.42484772 -99.00360107 31.39619446 C-102.07277383 31.29131029 -105.14150492 31.20167641 -108.21191406 31.14233398 C-123.89765643 30.80169732 -123.89765643 30.80169732 -129.85205078 25.27075195 C-130.23087402 24.85140381 -130.60969727 24.43205566 -131 24 C-127.2567748 19.97048607 -123.35278875 17.07507831 -118.6875 14.1875 C-118.04232422 13.78080078 -117.39714844 13.37410156 -116.73242188 12.95507812 C-115.15863345 11.9641743 -113.57982788 10.98124628 -112 10 C-109.03523302 12.90911436 -106.24819045 15.84429318 -103.625 19.0625 C-98.87196232 24.55075702 -93.63500202 27.58543237 -86.3359375 28.23828125 C-76.93985399 28.47380313 -68.82201848 26.57959945 -61.7199707 20.11230469 C-59.53430742 17.42808059 -58.55118108 14.60189172 -57.22265625 11.41015625 C-55.10058154 7.40415045 -54.05107405 5.42468368 -49.80297852 3.70825195 C-45.89472387 3.14539881 -42.06418602 2.93759879 -38.125 2.875 C-36.72637316 2.80738305 -35.32806594 2.73280556 -33.93017578 2.65136719 C-31.85729862 2.53121092 -29.78533707 2.41494204 -27.71102905 2.3223877 C-21.00702518 2.01726465 -14.66282869 0.84118197 -8.1171875 -0.546875 C-5.04684575 -0.99319034 -2.96596997 -0.82823312 0 0 Z " fill="#B9B9B8" transform="translate(259,163)"/>
<path d="M0 0 C0.99 0.33 1.98 0.66 3 1 C3 1.99 3 2.98 3 4 C3.495 5.485 3.495 5.485 4 7 C4.66517474 14.45868065 4.66431104 19.98549366 0 26 C-4.81256314 30.92837348 -8.68159818 31.98990017 -15.375 32.375 C-21.25813587 32.82091005 -26.84027039 33.93433577 -32.578125 35.28125 C-41.19409161 37.09099641 -49.84251446 37.43719916 -58.625 37.6875 C-59.92179687 37.76677734 -61.21859375 37.84605469 -62.5546875 37.92773438 C-66.29249118 38.01041213 -69.38903957 37.98267171 -73 37 C-75.91100481 33.98582865 -77.3208804 30.78722031 -79 27 C-79.66 26.67 -80.32 26.34 -81 26 C-81.12375 26.928125 -81.2475 27.85625 -81.375 28.8125 C-82 32 -82 32 -84 35 C-87.25511789 34.43877278 -88.99840071 33.66879905 -91 31 C-91.875 28.6875 -91.875 28.6875 -92 26 C-90.5625 22.8125 -90.5625 22.8125 -89 20 C-89 19.34 -89 18.68 -89 18 C-89.66 17.67 -90.32 17.34 -91 17 C-91.12375 17.7425 -91.2475 18.485 -91.375 19.25 C-91.95486701 21.80141485 -92.73708739 23.7267573 -94 26 C-95.98 25.67 -97.96 25.34 -100 25 C-100.85712696 22.60004452 -101.22584094 21.48394488 -100.125 19.125 C-99.75375 18.42375 -99.3825 17.7225 -99 17 C-98.63685637 15.0051973 -98.30050607 13.00519506 -98 11 C-94.08348097 10.91140125 -90.16722626 10.85908083 -86.25 10.8125 C-84.61224609 10.77479492 -84.61224609 10.77479492 -82.94140625 10.73632812 C-73.75487559 10.65479087 -65.25366342 11.80392615 -57 16 C-54.33486884 16.72274743 -51.69003378 17.38802103 -49 18 C-48.25049072 18.17370117 -47.50098145 18.34740234 -46.72875977 18.52636719 C-40.52527616 19.93802553 -34.29567097 21.07809057 -28 22 C-32.25225167 17.62625542 -36.36588757 13.50404997 -42 11 C-42 10.34 -42 9.68 -42 9 C-40.18242187 8.83564453 -40.18242187 8.83564453 -38.328125 8.66796875 C-29.14202054 7.80925562 -20.00119662 6.8004056 -10.875 5.4375 C-10.01680664 5.31076904 -9.15861328 5.18403809 -8.27441406 5.0534668 C-4.0093404 4.46746325 -4.0093404 4.46746325 0 3 C0 2.01 0 1.02 0 0 Z " fill="#B9B9B9" transform="translate(242,194)"/>
<path d="M0 0 C2.02374851 0.33412224 4.04579634 0.67864357 6.06640625 1.03125 C18.8446238 3.22564016 31.47325013 4.10637999 44.41015625 4.60546875 C43.68372512 7.76529978 42.65734769 10.07597782 40.97265625 12.85546875 C36.59269071 20.64347665 36.131179 27.81958743 35.75390625 36.62890625 C35.41015625 39.60546875 35.41015625 39.60546875 33.41015625 41.60546875 C28.01735822 42.15457077 22.61905315 42.19063418 17.20092773 42.25073242 C15.39777445 42.27864701 13.59480654 42.32615702 11.79272461 42.39428711 C-5.04008162 43.02852182 -5.04008162 43.02852182 -12.17578125 37.30859375 C-17.61533526 32.03919515 -20.63357979 27.33435035 -21.21484375 19.73046875 C-20.90725748 12.33700613 -16.54237974 7.10872002 -12.15234375 1.48046875 C-8.06590238 -1.5096103 -4.83697081 -0.73685377 0 0 Z " fill="#BABABA" transform="translate(108.58984375,124.39453125)"/>
<path d="M0 0 C0.33 0.66 0.66 1.32 1 2 C2.89161518 2.58842916 2.89161518 2.58842916 5.21875 2.9375 C11.68785528 4.11705196 18.08786005 5.54466037 24.5 7 C25.67820313 7.26039062 26.85640625 7.52078125 28.0703125 7.7890625 C29.75253906 8.17191406 29.75253906 8.17191406 31.46875 8.5625 C32.48388672 8.79066406 33.49902344 9.01882812 34.54492188 9.25390625 C37 10 37 10 39 12 C38.01 12.33 37.02 12.66 36 13 C34.91955897 14.83709406 34.91955897 14.83709406 34 17 C33.57460937 17.66257813 33.14921875 18.32515625 32.7109375 19.0078125 C29.11366115 24.70875923 27.87197467 29.29692641 29 36 C30.78921038 42.52120101 34.77669712 45.83220974 40.171875 49.65234375 C41.07679687 50.31943359 41.07679687 50.31943359 42 51 C42 51.33 42 51.66 42 52 C28.12512835 51.59601277 14.68371816 50.33696153 1 48 C0.67 48.66 0.34 49.32 0 50 C0 49.34 0 48.68 0 48 C-0.53625 47.773125 -1.0725 47.54625 -1.625 47.3125 C-7.35005219 44.14865537 -10.88552589 40.81121846 -13.3046875 34.72265625 C-15.31889944 26.83554544 -15.15163692 18.25813353 -11.34375 10.96875 C-8.26889363 6.46372788 -4.51792037 3.01194691 0 0 Z " fill="#9B9A9A" transform="translate(60,113)"/>
<path d="M0 0 C1.84518157 -0.01642738 3.69030309 -0.04353855 5.53515625 -0.08203125 C20.43151192 -0.3903334 34.76986805 0.59649745 47.17211914 9.78759766 C48.17629883 10.50818359 49.18047852 11.22876953 50.21508789 11.97119141 C53.23211514 14.5626859 55.47407049 17.27374705 57.98461914 20.35009766 C57.42688812 20.34787704 56.8691571 20.34565643 56.29452515 20.34336853 C50.42072194 20.3210195 44.54693106 20.30606933 38.6730957 20.29516602 C36.48917143 20.29017768 34.30525043 20.28338463 32.12133789 20.2746582 C21.35280168 20.23274769 10.66650799 20.2049284 -0.06860352 21.12524414 C-4.67769091 21.47694004 -9.27079058 21.45886474 -13.89038086 21.41259766 C-14.78112305 21.40808594 -15.67186523 21.40357422 -16.58959961 21.39892578 C-18.73155757 21.38740988 -20.87347973 21.36949113 -23.01538086 21.35009766 C-23.75342186 8.68039378 -23.75342186 8.68039378 -19.01538086 3.35009766 C-20.00538086 2.69009766 -20.99538086 2.03009766 -22.01538086 1.35009766 C-14.86698254 -0.42555623 -7.31721803 0.0475019 0 0 Z " fill="#BAB9B7" transform="translate(156.015380859375,20.64990234375)"/>
<path d="M0 0 C0.495 0.99 0.495 0.99 1 2 C1.33 2 1.66 2 2 2 C2 3.65 2 5.3 2 7 C3.32 7.33 4.64 7.66 6 8 C6 8.33 6 8.66 6 9 C4.02 9 2.04 9 0 9 C0.32455828 11.00144274 0.66117344 13.00092329 1 15 C1.14566406 15.91652344 1.29132813 16.83304688 1.44140625 17.77734375 C1.68697266 19.24880859 1.68697266 19.24880859 1.9375 20.75 C2.16759766 22.16539062 2.16759766 22.16539062 2.40234375 23.609375 C2.82392365 26.16692082 2.82392365 26.16692082 5 28 C5.495 26.515 5.495 26.515 6 25 C9.91593446 25.78318689 13.36406635 27.39179858 17 29 C17.66 27.02 18.32 25.04 19 23 C21.41396234 25.89675481 23.38617243 28.59787701 25 32 C23.93458984 32.83144531 23.93458984 32.83144531 22.84765625 33.6796875 C21.92855469 34.40414062 21.00945312 35.12859375 20.0625 35.875 C18.68771484 36.95394531 18.68771484 36.95394531 17.28515625 38.0546875 C14.93990515 39.79420836 14.93990515 39.79420836 14 42 C13.01 42.33 12.02 42.66 11 43 C11.33 43.66 11.66 44.32 12 45 C9.89828133 45.8394882 7.79353375 46.67139656 5.6875 47.5 C4.51574219 47.9640625 3.34398437 48.428125 2.13671875 48.90625 C-1 50 -1 50 -4 50 C-4 50.99 -4 51.98 -4 53 C-5.32 53 -6.64 53 -8 53 C-8.99 49.535 -8.99 49.535 -10 46 C-8.7934375 46.0928125 -8.7934375 46.0928125 -7.5625 46.1875 C-3.02351267 45.94860593 0.76901601 44.57956736 5 43 C4.14728516 42.67128906 4.14728516 42.67128906 3.27734375 42.3359375 C-3.61990901 39.50334288 -9.86307912 36.29502794 -13 29.1875 C-14.73476277 23.68703268 -13.78969622 18.36908866 -12 13 C-18.09515449 16.82441066 -22.85281076 21.01185125 -24.52734375 28.29296875 C-24.77194166 30.18608952 -24.89788624 32.0938764 -25 34 C-25.99 34 -26.98 34 -28 34 C-28.68344958 25.79860508 -26.75383639 20.75523145 -21.9375 14.1875 C-20.3441095 12.38851073 -18.74179322 10.65470356 -17 9 C-17.928125 8.401875 -18.85625 7.80375 -19.8125 7.1875 C-23 5 -23 5 -24.5625 3.1875 C-26.00264922 1.73321631 -26.00264922 1.73321631 -28.4375 2.0625 C-31.44140194 3.16148852 -32.83851162 4.68944345 -35 7 C-35.66 7 -36.32 7 -37 7 C-36.71711523 3.60538272 -36.25867941 2.25867941 -33.8125 -0.1875 C-23.77943053 -6.65325588 -10.26509377 -5.46142853 0 0 Z " fill="#9B9A99" transform="translate(88,185)"/>
<path d="M0 0 C-3.22791555 2.1519437 -4.28400809 2.20086443 -8 2 C-7.505 3.98 -7.505 3.98 -7 6 C-13.00712023 7.6028279 -18.97228509 8.74217256 -25.125 9.625 C-26.49628052 9.82283081 -26.49628052 9.82283081 -27.89526367 10.0246582 C-35.31606553 11.03264665 -42.50819905 11.33996408 -50 11 C-50 11.66 -50 12.32 -50 13 C-49.175 13.185625 -48.35 13.37125 -47.5 13.5625 C-42.87557549 15.46181721 -39.39813374 18.34312512 -36 22 C-36 22.66 -36 23.32 -36 24 C-43.78042557 23.8260474 -50.97526914 22.4491295 -58.5 20.5625 C-59.80855957 20.2363269 -59.80855957 20.2363269 -61.14355469 19.90356445 C-65.02864696 18.89907256 -68.41288576 17.80310322 -72 16 C-79.37473909 13.53824687 -86.87568901 13.7643984 -94.5625 13.875 C-95.76197266 13.88402344 -96.96144531 13.89304688 -98.19726562 13.90234375 C-101.13172309 13.92572588 -104.06575234 13.9584972 -107 14 C-107.66 12.02 -108.32 10.04 -109 8 C-112.3 7.34 -115.6 6.68 -119 6 C-119 4.68 -119 3.36 -119 2 C-114.71630116 -0.13693514 -111.0141047 -0.16276626 -106.34765625 0.13671875 C-105.61107285 0.17682571 -104.87448944 0.21693268 -104.11558533 0.258255 C-102.55614259 0.34618875 -100.99701283 0.4398354 -99.43823242 0.53881836 C-97.10200899 0.68502739 -94.76543423 0.80776988 -92.42773438 0.92773438 C-84.02156338 1.40285898 -76.15617593 2.43578949 -67.94702148 4.35620117 C-50.02143607 8.27217903 -28.35798162 3.50123772 -10.6796875 0.23339844 C-9.71933594 0.05969727 -8.75898438 -0.11400391 -7.76953125 -0.29296875 C-6.91979736 -0.4530542 -6.07006348 -0.61313965 -5.19458008 -0.77807617 C-3 -1 -3 -1 0 0 Z " fill="#7A7A7A" transform="translate(250,192)"/>
<path d="M0 0 C2.37890625 0.80078125 2.37890625 0.80078125 4.37890625 1.80078125 C4.23453125 2.47625 4.09015625 3.15171875 3.94140625 3.84765625 C3.75578125 4.7396875 3.57015625 5.63171875 3.37890625 6.55078125 C3.19328125 7.4325 3.00765625 8.31421875 2.81640625 9.22265625 C2.2673695 12.0222209 2.2673695 12.0222209 2.37890625 15.80078125 C2.859989 14.38476411 3.33868766 12.96793688 3.81640625 11.55078125 C4.08324219 10.761875 4.35007812 9.97296875 4.625 9.16015625 C5.29845333 7.05256137 5.8704122 4.95324152 6.37890625 2.80078125 C8.81670255 2.7468079 11.2533031 2.70712509 13.69140625 2.67578125 C14.38169922 2.65902344 15.07199219 2.64226562 15.78320312 2.625 C19.55026021 2.58860331 21.16322329 2.65699261 24.37890625 4.80078125 C24.37890625 5.46078125 24.37890625 6.12078125 24.37890625 6.80078125 C21.36400068 7.80574977 19.33708933 7.90413428 16.19140625 7.86328125 C15.29035156 7.85425781 14.38929688 7.84523437 13.4609375 7.8359375 C12.77386719 7.82433594 12.08679688 7.81273437 11.37890625 7.80078125 C11.37890625 8.46078125 11.37890625 9.12078125 11.37890625 9.80078125 C19.37784357 9.21221702 19.37784357 9.21221702 27.31640625 8.11328125 C30.7433915 7.76358888 32.38909706 8.13977615 35.37890625 9.80078125 C37.19140625 11.42578125 37.19140625 11.42578125 38.37890625 12.80078125 C37.37890625 15.80078125 37.37890625 15.80078125 34.56640625 17.48828125 C28.39411891 19.93414615 20.69238268 19.66920864 14.37890625 17.80078125 C14.37890625 18.46078125 14.37890625 19.12078125 14.37890625 19.80078125 C22.53492611 21.6083316 29.32758965 21.83903359 36.66796875 17.64453125 C38.37890625 16.80078125 38.37890625 16.80078125 41.12890625 16.73828125 C44.12488176 18.15304746 45.51500374 20.10847762 47.37890625 22.80078125 C45.53623025 27.53909097 42.46998171 28.75191854 38.03515625 30.81640625 C31.24989634 33.33094375 25.80654627 31.55548412 19.37890625 28.80078125 C19.04890625 29.46078125 18.71890625 30.12078125 18.37890625 30.80078125 C11.79307344 28.52479491 5.54287513 26.05721764 -0.62109375 22.80078125 C-1.77660828 24.52349352 -2.92013494 26.25425042 -4.05859375 27.98828125 C-4.69667969 28.95121094 -5.33476563 29.91414063 -5.9921875 30.90625 C-7.53655562 33.65055882 -8.21926016 35.70496468 -8.62109375 38.80078125 C-9.61109375 38.80078125 -10.60109375 38.80078125 -11.62109375 38.80078125 C-11.62109375 38.14078125 -11.62109375 37.48078125 -11.62109375 36.80078125 C-12.94109375 36.80078125 -14.26109375 36.80078125 -15.62109375 36.80078125 C-15.62109375 35.81078125 -15.62109375 34.82078125 -15.62109375 33.80078125 C-14.74904297 33.45660156 -14.74904297 33.45660156 -13.859375 33.10546875 C-11.03518625 31.45925751 -9.6866767 29.59068212 -7.80859375 26.92578125 C-7.18339844 26.06210938 -6.55820313 25.1984375 -5.9140625 24.30859375 C-4.43791105 21.95547825 -4.43791105 21.95547825 -4.71484375 19.67578125 C-5.80570536 17.4188262 -6.99637469 16.26040155 -8.93359375 14.67578125 C-9.52785156 14.17820313 -10.12210937 13.680625 -10.734375 13.16796875 C-12.62362031 11.79895041 -14.50767145 10.78051344 -16.62109375 9.80078125 C-15.79609375 9.63578125 -14.97109375 9.47078125 -14.12109375 9.30078125 C-9.82031401 7.45758993 -7.65624656 4.89499854 -4.6484375 1.3828125 C-2.62109375 -0.19921875 -2.62109375 -0.19921875 0 0 Z " fill="#9E9D9C" transform="translate(116.62109375,218.19921875)"/>
<path d="M0 0 C14.29298075 -0.9033485 14.29298075 -0.9033485 20.7421875 3.7109375 C22 5 22 5 22 7 C20.02 7.99 20.02 7.99 18 9 C18 9.66 18 10.32 18 11 C18.68707031 11.06316406 19.37414062 11.12632812 20.08203125 11.19140625 C22.87143675 11.57051 25.35059979 12.04161568 28 13 C30.64475762 16.77822517 31.2319169 19.75118693 30.875 24.25 C30 28 30 28 27 31 C23.7 30.01 20.4 29.02 17 28 C17.66 29.32 18.32 30.64 19 32 C19.99 32.33 20.98 32.66 22 33 C22 33.66 22 34.32 22 35 C19.01002175 36.49498913 16.29957225 36.11577446 13 36 C11.515 35.505 11.515 35.505 10 35 C9.87625 36.03125 9.7525 37.0625 9.625 38.125 C9.05759142 41.64293321 8.33481602 44.70221925 7 48 C6.01 48.495 6.01 48.495 5 49 C5.4452885 43.72684667 6.08373163 38.98229776 8 34 C4.53709869 32.7362558 4.53709869 32.7362558 1 33 C-1.45333539 35.1335256 -3.53388178 37.48181486 -5.7109375 39.89453125 C-9.11715779 43.0275564 -11.47632923 43.08224856 -16 43 C-15.34 42.34 -14.68 41.68 -14 41 C-13.01 41 -12.02 41 -11 41 C-10.7421875 40.40703125 -10.484375 39.8140625 -10.21875 39.203125 C-8.90230105 36.82339035 -7.57419218 35.49021208 -5.5 33.75 C-4.8915625 33.22921875 -4.283125 32.7084375 -3.65625 32.171875 C-2 31 -2 31 0 31 C-0.845625 30.154375 -1.69125 29.30875 -2.5625 28.4375 C-4.75019119 25.79119932 -5 25.2512303 -5 21.625 C-4.09605066 18.34818363 -2.96504553 15.34217402 -1.69921875 12.19921875 C-0.43906421 8.23571591 -0.2455896 4.13268014 0 0 Z " fill="#292929" transform="translate(113,186)"/>
<path d="M0 0 C-0.9590625 1.36125 -0.9590625 1.36125 -1.9375 2.75 C-3.98324869 6.25186944 -4.36831908 9.2388675 -4.62890625 13.265625 C-4.70310791 14.34102539 -4.77730957 15.41642578 -4.85375977 16.52441406 C-4.90201904 17.34135742 -4.95027832 18.15830078 -5 19 C-3.76141235 18.90912109 -3.76141235 18.90912109 -2.49780273 18.81640625 C15.02809886 17.56790035 32.48889939 16.79743996 50.0625 16.8125 C50.89661407 16.8117749 51.73072815 16.8110498 52.59011841 16.81030273 C60.77750107 16.81111114 68.87877754 16.82641294 77 18 C77.99 20.475 77.99 20.475 79 23 C78.24483597 22.99777939 77.48967194 22.99555878 76.71162415 22.99327087 C69.49253982 22.9729896 62.27346987 22.95788701 55.0543642 22.94818783 C51.34555632 22.94303334 47.63677253 22.93607629 43.92797852 22.92456055 C15.84834212 22.30316573 15.84834212 22.30316573 -12 25 C-13.35077944 25.12011056 -14.70401928 25.21675462 -16.05859375 25.28125 C-16.77466797 25.31863281 -17.49074219 25.35601562 -18.22851562 25.39453125 C-19.32196289 25.44673828 -19.32196289 25.44673828 -20.4375 25.5 C-24.53212099 25.69654181 -28.54154244 25.93287227 -32.6015625 26.52734375 C-36.09576954 27.01331967 -39.41241601 27.09884107 -42.9375 27.0625 C-44.08089844 27.05347656 -45.22429687 27.04445313 -46.40234375 27.03515625 C-47.25957031 27.02355469 -48.11679688 27.01195313 -49 27 C-48.01 26.67 -47.02 26.34 -46 26 C-46 25.34 -46 24.68 -46 24 C-44.95199219 23.85304688 -44.95199219 23.85304688 -43.8828125 23.703125 C-42.97273438 23.55359375 -42.06265625 23.4040625 -41.125 23.25 C-40.22007813 23.11078125 -39.31515625 22.9715625 -38.3828125 22.828125 C-35.88132069 22.24865517 -35.88132069 22.24865517 -34.9453125 20.1875 C-34.47738281 19.1046875 -34.47738281 19.1046875 -34 18 C-25.42111999 8.57032197 -13.0194401 -0.24564981 0 0 Z " fill="#828282" transform="translate(138,23)"/>
<path d="M0 0 C6.56414921 4.50723259 12.80907476 10.7822588 14.625 18.73828125 C14.74875 19.48464844 14.8725 20.23101562 15 21 C10.03728587 23.08011635 5.13300998 25.01831831 -0.0625 26.4375 C-8.25598465 28.8315338 -14.62386837 33.24443433 -21.15234375 38.64453125 C-23 40 -23 40 -25 40 C-25.51664665 25.47648849 -23.95056698 16.19223218 -14 5 C-5.98315954 -2.05642031 -5.98315954 -2.05642031 0 0 Z " fill="#171717" transform="translate(170,122)"/>
<path d="M0 0 C0.97548971 11.83594177 -1.76183794 23.27472218 -9.53515625 32.51171875 C-12.64916573 35.67555238 -14.94088543 36.82015036 -19.3125 37.5625 C-26.52063592 36.46295384 -31.21163385 31.10285745 -35.87109375 25.80859375 C-37.25882484 23.5853429 -37.61721067 21.57392825 -38 19 C-19.37968161 8.63316158 -19.37968161 8.63316158 -11.26171875 4.25390625 C-9.62352816 3.3456866 -8.02548639 2.3637968 -6.45703125 1.33984375 C-4 0 -4 0 0 0 Z " fill="#181818" transform="translate(187,153)"/>
<path d="M0 0 C0 0.99 0 1.98 0 3 C-0.66 3 -1.32 3 -2 3 C-2 3.66 -2 4.32 -2 5 C-25.21951671 15.20575933 -58.39678925 12.45845621 -83.48504639 12.26428223 C-86.44581989 12.24508253 -89.40653291 12.24116088 -92.36736012 12.23742771 C-133.53310272 12.18073469 -133.53310272 12.18073469 -150.4375 9.5625 C-151.30697266 9.44068359 -152.17644531 9.31886719 -153.07226562 9.19335938 C-157.30683932 8.56709675 -161.09502979 7.85225486 -165 6 C-165 5.34 -165 4.68 -165 4 C-160.17971512 3.90753929 -155.641608 4.2322891 -150.875 4.9375 C-138.55918022 6.75657623 -126.24256195 7.18045891 -113.80859375 7.23828125 C-112.66926234 7.24439454 -112.66926234 7.24439454 -111.50691414 7.25063133 C-107.46481748 7.27136228 -103.42275319 7.28570391 -99.38061523 7.29516602 C-96.12618566 7.30390177 -92.87220053 7.32449344 -89.61791992 7.35668945 C-61.77600236 7.62578834 -31.98105143 7.4249836 -4.82972717 0.44181824 C-3 0 -3 0 0 0 Z " fill="#818181" transform="translate(241,75)"/>
<path d="M0 0 C0.33 0.66 0.66 1.32 1 2 C3.0380337 2.39816796 3.0380337 2.39816796 5.55078125 2.49609375 C10.34133545 2.8487393 15.09324015 3.35035149 19.85546875 3.97265625 C20.53384796 4.06066498 21.21222717 4.14867371 21.91116333 4.23934937 C24.00350573 4.51200405 26.09550512 4.78719299 28.1875 5.0625 C29.630834 5.2508456 31.07419323 5.43899793 32.51757812 5.62695312 C36.01201185 6.08241253 39.50609902 6.54046947 43 7 C42.34 7.99 41.68 8.98 41 10 C40.896875 11.155 40.79375 12.31 40.6875 13.5 C40.460625 14.655 40.23375 15.81 40 17 C37.625 18.5625 37.625 18.5625 35 20 C33.17370206 23.06680799 33.17370206 23.06680799 32 26 C30.68 25.34 29.36 24.68 28 24 C28.33 23.34 28.66 22.68 29 22 C19.83014051 18.85604817 9.49004489 17.10868411 0 20 C-1.582626 12.69557232 -2.47075377 7.1377331 0 0 Z " fill="#9A9998" transform="translate(59,163)"/>
<path d="M0 0 C0.495 0.99 0.495 0.99 1 2 C1.33 2 1.66 2 2 2 C2 3.65 2 5.3 2 7 C3.32 7.33 4.64 7.66 6 8 C6 8.33 6 8.66 6 9 C4.02 9 2.04 9 0 9 C0 10.65 0 12.3 0 14 C-2.97 13.67 -5.94 13.34 -9 13 C-9 12.34 -9 11.68 -9 11 C-15.46713354 15.01841307 -21.08617912 18.72919225 -24 26 C-24.61599943 28.72999747 -24.84940373 31.1888696 -25 34 C-25.99 34 -26.98 34 -28 34 C-28.68344958 25.79860508 -26.75383639 20.75523145 -21.9375 14.1875 C-20.3441095 12.38851073 -18.74179322 10.65470356 -17 9 C-17.928125 8.401875 -18.85625 7.80375 -19.8125 7.1875 C-23 5 -23 5 -24.5625 3.1875 C-26.00264922 1.73321631 -26.00264922 1.73321631 -28.4375 2.0625 C-31.44140194 3.16148852 -32.83851162 4.68944345 -35 7 C-35.66 7 -36.32 7 -37 7 C-36.71711523 3.60538272 -36.25867941 2.25867941 -33.8125 -0.1875 C-23.77943053 -6.65325588 -10.26509377 -5.46142853 0 0 Z " fill="#999998" transform="translate(88,185)"/>
<path d="M0 0 C-0.9590625 1.36125 -0.9590625 1.36125 -1.9375 2.75 C-4.88349149 7.798784 -4.81223725 13.2826243 -5 19 C-1.7 19 1.6 19 5 19 C5 19.33 5 19.66 5 20 C4.29915283 20.02505615 3.59830566 20.0501123 2.8762207 20.07592773 C-0.31185488 20.19226545 -3.49966242 20.31482044 -6.6875 20.4375 C-7.79029297 20.47681641 -8.89308594 20.51613281 -10.02929688 20.55664062 C-11.09599609 20.59853516 -12.16269531 20.64042969 -13.26171875 20.68359375 C-14.73064575 20.73858032 -14.73064575 20.73858032 -16.22924805 20.79467773 C-18.89723015 20.9923844 -21.38474579 21.45551982 -24 22 C-26.10323534 22.0659735 -28.20835724 22.08562245 -30.3125 22.0625 C-31.38113281 22.05347656 -32.44976562 22.04445313 -33.55078125 22.03515625 C-34.35902344 22.02355469 -35.16726562 22.01195313 -36 22 C-31.64261516 11.70915496 -19.50182382 5.84358249 -10 1 C-6.52674819 -0.1577506 -3.63932552 -0.06866652 0 0 Z " fill="#9C9B99" transform="translate(138,23)"/>
<path d="M0 0 C1.06734375 0.24234375 2.1346875 0.4846875 3.234375 0.734375 C8.15161319 1.84424992 13.07461208 2.92692265 18 4 C18.78020508 4.17080078 19.56041016 4.34160156 20.36425781 4.51757812 C46.41759405 10.1597019 72.42735539 12.76523034 99 14 C97.35 15.98 95.7 17.96 94 20 C93.505 19.01 93.505 19.01 93 18 C91.73027344 18.02320313 90.46054688 18.04640625 89.15234375 18.0703125 C79.37743921 18.19637868 69.93867118 17.97593768 60.26806641 16.37255859 C57.52927414 15.92267732 54.78637158 15.50287225 52.04296875 15.08203125 C37.42563128 12.81988991 22.90599606 10.47638548 8.625 6.5625 C7.87992187 6.36922119 7.13484375 6.17594238 6.3671875 5.97680664 C4.2890625 5.37890625 4.2890625 5.37890625 1 4 C0.0234375 1.83984375 0.0234375 1.83984375 0 0 Z " fill="#838383" transform="translate(60,111)"/>
<path d="M0 0 C-3.53407425 3.80592612 -7.13759951 6.58575315 -11.6875 9.125 C-12.30254395 9.47046875 -12.91758789 9.8159375 -13.55126953 10.171875 C-21.24120555 14.37039177 -28.20180305 16.48878872 -37 16 C-36.01 15.67 -35.02 15.34 -34 15 C-34 14.34 -34 13.68 -34 13 C-34.86625 12.87625 -34.86625 12.87625 -35.75 12.75 C-38.6159304 11.79468987 -39.9990764 10.21530827 -42 8 C-41.34 6.02 -40.68 4.04 -40 2 C-39.21874756 1.97494385 -38.43749512 1.9498877 -37.63256836 1.92407227 C-34.06740383 1.80749797 -30.50246387 1.68505135 -26.9375 1.5625 C-25.70837891 1.52318359 -24.47925781 1.48386719 -23.21289062 1.44335938 C-15.46982001 1.17203884 -7.71402658 -0.18814699 0 0 Z " fill="#BBB9B3" transform="translate(210,234)"/>
<path d="M0 0 C1.6828118 2.16361517 3.05548113 4.11759049 4.23022461 6.60742188 C5.79236216 9.26374325 5.79236216 9.26374325 8.71704102 9.61523438 C9.80170654 9.60814453 10.88637207 9.60105469 12.00390625 9.59375 C13.21135498 9.5932666 14.41880371 9.5927832 15.6628418 9.59228516 C17.59317261 9.546604 17.59317261 9.546604 19.5625 9.5 C20.8719458 9.48372559 22.1813916 9.46745117 23.53051758 9.45068359 C33.60703873 9.23831099 43.17473082 8.16811645 53 6 C54.91607672 5.60132073 56.83264923 5.20500627 58.75 4.8125 C59.49507812 4.65652344 60.24015625 4.50054687 61.0078125 4.33984375 C63.68861376 3.88253059 66.28948094 3.8573411 69 4 C64.64584048 6.49723855 59.97285686 7.0946167 55.09375 8.0234375 C51.63596346 9.11491052 50.49072605 10.46417025 48 13 C35.42828262 17.15788469 20.0321076 15.18331249 7 15 C7 14.34 7 13.68 7 13 C6.01 13.495 6.01 13.495 5 14 C4.34786708 16.02463255 4.34786708 16.02463255 4 18 C0.63408134 16.55746343 -1.51047079 14.66735273 -4 12 C-3.71125 11.319375 -3.4225 10.63875 -3.125 9.9375 C-1.87402645 6.67106907 -0.92552045 3.37153877 0 0 Z " fill="#818180" transform="translate(163,221)"/>
<path d="M0 0 C0 3 0 3 -1 6 C-15.23685097 14.84453667 -35.74317618 16.41010772 -52 19 C-53.22847656 19.29390625 -54.45695313 19.5878125 -55.72265625 19.890625 C-56.80417969 19.92671875 -57.88570312 19.9628125 -59 20 C-61.4375 17.5625 -61.4375 17.5625 -63 15 C-62.37359619 14.91024902 -61.74719238 14.82049805 -61.10180664 14.72802734 C-48.81404046 12.93808154 -36.64693269 10.87685397 -24.5625 8 C-23.5526001 7.7632959 -22.5427002 7.5265918 -21.50219727 7.28271484 C-15.81892322 5.88848129 -10.46749771 4.14069545 -5.07397461 1.8671875 C-3.41126141 1.17196004 -1.70972534 0.56990845 0 0 Z " fill="#838383" transform="translate(257,110)"/>
<path d="M0 0 C-3.22791555 2.1519437 -4.28400809 2.20086443 -8 2 C-7.505 3.98 -7.505 3.98 -7 6 C-19.39151654 9.31300963 -32.29599501 10.84309947 -45.0625 11.9375 C-46.31160156 12.04964844 -47.56070313 12.16179687 -48.84765625 12.27734375 C-52.71826218 11.93680717 -53.50427015 10.84220862 -56 8 C-59.64721696 7.19234122 -59.64721696 7.19234122 -63 7 C-63 6.67 -63 6.34 -63 6 C-62.03513672 5.93006836 -61.07027344 5.86013672 -60.07617188 5.78808594 C-34.9082726 3.95465055 -34.9082726 3.95465055 -9.97265625 0.18261719 C-9.08320313 0.01407227 -8.19375 -0.15447266 -7.27734375 -0.328125 C-6.13640259 -0.55870605 -6.13640259 -0.55870605 -4.97241211 -0.79394531 C-3 -1 -3 -1 0 0 Z " fill="#848483" transform="translate(250,192)"/>
<path d="M0 0 C2.37890625 0.80078125 2.37890625 0.80078125 4.37890625 1.80078125 C1.77971907 20.20640753 1.77971907 20.20640753 -3.62109375 27.80078125 C-7.1520204 32.88821738 -7.1520204 32.88821738 -8.62109375 38.80078125 C-9.61109375 38.80078125 -10.60109375 38.80078125 -11.62109375 38.80078125 C-11.62109375 38.14078125 -11.62109375 37.48078125 -11.62109375 36.80078125 C-12.94109375 36.80078125 -14.26109375 36.80078125 -15.62109375 36.80078125 C-15.62109375 35.81078125 -15.62109375 34.82078125 -15.62109375 33.80078125 C-14.74904297 33.45660156 -14.74904297 33.45660156 -13.859375 33.10546875 C-11.03518625 31.45925751 -9.6866767 29.59068212 -7.80859375 26.92578125 C-7.18339844 26.06210938 -6.55820313 25.1984375 -5.9140625 24.30859375 C-4.43791105 21.95547825 -4.43791105 21.95547825 -4.71484375 19.67578125 C-5.80570536 17.4188262 -6.99637469 16.26040155 -8.93359375 14.67578125 C-9.52785156 14.17820313 -10.12210937 13.680625 -10.734375 13.16796875 C-12.62362031 11.79895041 -14.50767145 10.78051344 -16.62109375 9.80078125 C-15.79609375 9.63578125 -14.97109375 9.47078125 -14.12109375 9.30078125 C-9.82031401 7.45758993 -7.65624656 4.89499854 -4.6484375 1.3828125 C-2.62109375 -0.19921875 -2.62109375 -0.19921875 0 0 Z " fill="#706E6C" transform="translate(116.62109375,218.19921875)"/>
<path d="M0 0 C1.9375 0.75 1.9375 0.75 4 2 C4.78515625 3.85546875 4.78515625 3.85546875 5 6 C2.69428302 10.32321934 -1.25347336 13.88568238 -5.86328125 15.57421875 C-10.78122348 16.55421089 -17.4243174 17.2878413 -22 15 C-22.33 15.66 -22.66 16.32 -23 17 C-24.98 13.37 -26.96 9.74 -29 6 C-26.03 6.495 -26.03 6.495 -23 7 C-15.53097621 7.66512475 -9.45649875 7.02186068 -3 3 C-1.29474696 1.44706099 -1.29474696 1.44706099 0 0 Z " fill="#A1A09E" transform="translate(165,244)"/>
<path d="M0 0 C-1.28965176 1.37562854 -2.62689293 2.70766393 -4 4 C-4.66 4 -5.32 4 -6 4 C-6 4.66 -6 5.32 -6 6 C-16.70652291 8.23459343 -27.35209002 10.22785935 -38.25 11.25 C-39.09328857 11.32976074 -39.93657715 11.40952148 -40.80541992 11.49169922 C-46.22060612 11.95707098 -51.56545563 12.06547644 -57 12 C-57 10.02 -57 8.04 -57 6 C-56.175 6.02320313 -55.35 6.04640625 -54.5 6.0703125 C-47.66941091 6.17704045 -41.08409762 5.92527242 -34.3125 5.0625 C-33.62994141 4.97564941 -32.94738281 4.88879883 -32.24414062 4.79931641 C-29.36561036 4.4080388 -26.76363788 3.92121263 -24 3 C-20.87513984 2.69513559 -17.74971889 2.49158784 -14.6171875 2.28125 C-12.07586139 2.28503015 -12.07586139 2.28503015 -11 1 C-9.53275131 0.58078609 -8.05053875 0.2130824 -6.5625 -0.125 C-5.75941406 -0.31320313 -4.95632813 -0.50140625 -4.12890625 -0.6953125 C-2 -1 -2 -1 0 0 Z " fill="#848484" transform="translate(264,156)"/>
<path d="M0 0 C2.5 2.0625 2.5 2.0625 4 4 C3 7 3 7 0.1875 8.6875 C-5.41167715 10.86238699 -12.39142792 11.32768218 -18.0703125 9.23828125 C-20.46503219 7.77484144 -21.82731326 6.57352931 -22.64453125 3.859375 C-22.76183594 3.24578125 -22.87914062 2.6321875 -23 2 C-21.75283203 1.80083984 -21.75283203 1.80083984 -20.48046875 1.59765625 C-19.39378906 1.42105469 -18.30710938 1.24445313 -17.1875 1.0625 C-16.10855469 0.88847656 -15.02960938 0.71445313 -13.91796875 0.53515625 C-4.45325144 -1.20067544 -4.45325144 -1.20067544 0 0 Z " fill="#A0A0A0" transform="translate(151,227)"/>
<path d="M0 0 C0.66 0 1.32 0 2 0 C1.88601335 1.62580966 1.75844341 3.25067157 1.625 4.875 C1.55539063 5.77992188 1.48578125 6.68484375 1.4140625 7.6171875 C1 10 1 10 -1 12 C-7.12292792 16.27181018 -11.5625985 17.59026996 -19 17 C-19.33 17.66 -19.66 18.32 -20 19 C-22.31 16.03 -24.62 13.06 -27 10 C-26.67 9.34 -26.34 8.68 -26 8 C-25.67 8.33 -25.34 8.66 -25 9 C-14.55033114 10.10329553 -14.55033114 10.10329553 -5.1875 6.1875 C-2.98578739 4.21908144 -1.66383204 2.49574806 0 0 Z " fill="#A4A09B" transform="translate(170,253)"/>
<path d="M0 0 C4.5397216 -0.17460468 8.65656638 0.04607318 13.125 0.875 C22.65839678 2.59938701 32.35399492 3.19917043 42 4 C42 5.32 42 6.64 42 8 C27.40776345 8.38232934 13.30732213 6.90472631 -1 4 C-0.67 2.68 -0.34 1.36 0 0 Z " fill="#6E6E6E" transform="translate(61,161)"/>
<path d="M0 0 C12.21 0 24.42 0 37 0 C32 6 32 6 29.76628113 6.64559937 C29.0134938 6.59674591 28.26070648 6.54789246 27.48510742 6.49755859 C26.62459274 6.4570639 25.76407806 6.41656921 24.87748718 6.37484741 C23.9627211 6.30013214 23.04795502 6.22541687 22.10546875 6.1484375 C21.15811356 6.09555573 20.21075836 6.04267395 19.23469543 5.9881897 C16.21634827 5.81297892 13.20290859 5.59462574 10.1875 5.375 C8.13884631 5.24844599 6.09001614 5.12471494 4.04101562 5.00390625 C-0.97529029 4.70196045 -5.9876339 4.36130291 -11 4 C-11 3.67 -11 3.34 -11 3 C-10.28972656 2.95101562 -9.57945313 2.90203125 -8.84765625 2.8515625 C-7.46900391 2.73941406 -7.46900391 2.73941406 -6.0625 2.625 C-5.14597656 2.55539063 -4.22945313 2.48578125 -3.28515625 2.4140625 C-2.15400391 2.20910156 -2.15400391 2.20910156 -1 2 C-0.67 1.34 -0.34 0.68 0 0 Z " fill="#868686" transform="translate(104,166)"/>
<path d="M0 0 C28.10118407 -0.26587729 28.10118407 -0.26587729 33 3 C32.67 4.32 32.34 5.64 32 7 C2.96774194 5.48387097 2.96774194 5.48387097 0 4 C0 2.68 0 1.36 0 0 Z " fill="#D6D6D6" transform="translate(197,52)"/>
<path d="M0 0 C0.99 0.33 1.98 0.66 3 1 C2.34838935 3.00495586 1.67735217 5.00359361 1 7 C0.76023438 8.04414063 0.76023438 8.04414063 0.515625 9.109375 C-0.0917801 11.3584155 -0.69539041 13.06527285 -2 15 C-8.07404653 18.26446554 -16.33696251 17.20293515 -23 17 C-23 16.34 -23 15.68 -23 15 C-16.565 14.505 -16.565 14.505 -10 14 C-12.7018576 10.8509288 -12.7018576 10.8509288 -16 10 C-16 9.34 -16 8.68 -16 8 C-17.32 7.67 -18.64 7.34 -20 7 C-20.33 5.68 -20.66 4.36 -21 3 C-18.99875639 3.32578384 -16.99897128 3.66055205 -15 4 C-14.071875 4.144375 -13.14375 4.28875 -12.1875 4.4375 C-11.465625 4.623125 -10.74375 4.80875 -10 5 C-9.67 5.66 -9.34 6.32 -9 7 C-7.02111039 7.72693904 -5.02045442 8.39816251 -3 9 C-2.01 6.03 -1.02 3.06 0 0 Z " fill="#434343" transform="translate(151,211)"/>
<path d="M0 0 C1.25425781 0.00902344 2.50851563 0.01804688 3.80078125 0.02734375 C4.75339844 0.03894531 5.70601562 0.05054688 6.6875 0.0625 C6.3575 1.3825 6.0275 2.7025 5.6875 4.0625 C0.8649272 4.97673181 -3.86049963 5.32904905 -8.75 5.5625 C-12.84462099 5.75904181 -16.85404244 5.99537227 -20.9140625 6.58984375 C-24.40826954 7.07581967 -27.72491601 7.16134107 -31.25 7.125 C-32.39339844 7.11597656 -33.53679687 7.10695313 -34.71484375 7.09765625 C-35.57207031 7.08605469 -36.42929688 7.07445312 -37.3125 7.0625 C-36.3225 6.7325 -35.3325 6.4025 -34.3125 6.0625 C-34.3125 5.4025 -34.3125 4.7425 -34.3125 4.0625 C-28.07215041 2.19039512 -22.0812809 1.65971088 -15.58203125 1.30859375 C-12.42766069 1.14427522 -12.42766069 1.14427522 -9.84375 0.5390625 C-6.5330322 -0.08425165 -3.36571663 -0.0314553 0 0 Z " fill="#727270" transform="translate(126.3125,42.9375)"/>
<path d="M0 0 C0 1.32 0 2.64 0 4 C-6.34680724 6.41495296 -12.30986454 7.61648583 -19.0625 8.1875 C-19.92810547 8.26935547 -20.79371094 8.35121094 -21.68554688 8.43554688 C-23.78949774 8.63315552 -25.89464582 8.81795005 -28 9 C-28.66 7.68 -29.32 6.36 -30 5 C-27.70234426 2.70234426 -26.91233829 2.63086379 -23.7890625 2.18359375 C-22.95632812 2.05919922 -22.12359375 1.93480469 -21.265625 1.80664062 C-20.39421875 1.68482422 -19.5228125 1.56300781 -18.625 1.4375 C-16.90863054 1.18772982 -15.19247574 0.93647911 -13.4765625 0.68359375 C-12.3330835 0.52201782 -12.3330835 0.52201782 -11.16650391 0.35717773 C-8.99417547 0.03633729 -8.99417547 0.03633729 -6.89208984 -0.57006836 C-4.38706211 -1.13927531 -2.46401516 -0.61600379 0 0 Z " fill="#D5D5D5" transform="translate(237,202)"/>
<path d="M0 0 C0 0.99 0 1.98 0 3 C-0.66 3 -1.32 3 -2 3 C-2 3.66 -2 4.32 -2 5 C-11.15644125 9.01332047 -24.54819719 11.18502014 -34.3046875 8.32421875 C-36.25 7.5 -36.25 7.5 -39 6 C-39 5.67 -39 5.34 -39 5 C-37.73724243 4.87939209 -37.73724243 4.87939209 -36.44897461 4.75634766 C-33.29691073 4.45214214 -30.14549273 4.14206606 -26.99438477 3.828125 C-25.63588798 3.6939684 -24.27716425 3.56208807 -22.91821289 3.43261719 C-20.95399433 3.24506786 -18.99065472 3.04838565 -17.02734375 2.8515625 C-15.25991821 2.67874756 -15.25991821 2.67874756 -13.45678711 2.50244141 C-8.86305192 1.83474545 -4.63885632 0 0 0 Z " fill="#858584" transform="translate(241,75)"/>
<path d="M0 0 C1.54880859 0.34611328 1.54880859 0.34611328 3.12890625 0.69921875 C15.74254752 3.51264859 28.36940978 6.26376623 41 9 C41 9.99 41 10.98 41 12 C30.0057513 12.67311727 19.14918324 9.45339187 8.625 6.5625 C7.8812915 6.36954346 7.13758301 6.17658691 6.37133789 5.9777832 C4.2890625 5.37890625 4.2890625 5.37890625 1 4 C0.0234375 1.83984375 0.0234375 1.83984375 0 0 Z " fill="#6E6E6E" transform="translate(60,111)"/>
<path d="M0 0 C2.4377963 -0.05397335 4.87439685 -0.09365616 7.3125 -0.125 C8.00279297 -0.14175781 8.69308594 -0.15851563 9.40429688 -0.17578125 C13.17135396 -0.21217794 14.78431704 -0.14378864 18 2 C18 2.66 18 3.32 18 4 C14.98509443 5.00496852 12.95818308 5.10335303 9.8125 5.0625 C8.91144531 5.05347656 8.01039063 5.04445312 7.08203125 5.03515625 C6.39496094 5.02355469 5.70789063 5.01195312 5 5 C5 5.66 5 6.32 5 7 C7.97 7 10.94 7 14 7 C14 7.33 14 7.66 14 8 C11.03 8 8.06 8 5 8 C5.33 9.98 5.66 11.96 6 14 C3.03 13.67 0.06 13.34 -3 13 C-2.01 8.71 -1.02 4.42 0 0 Z " fill="#989898" transform="translate(123,221)"/>
<path d="M0 0 C0.845625 0.26554688 1.69125 0.53109375 2.5625 0.8046875 C8.6769623 2.70850872 14.76578071 4.53312487 21 6 C20.01 6.66 19.02 7.32 18 8 C18.33 8.66 18.66 9.32 19 10 C16.89828133 10.8394882 14.79353375 11.67139656 12.6875 12.5 C11.51574219 12.9640625 10.34398438 13.428125 9.13671875 13.90625 C6 15 6 15 3 15 C3 15.99 3 16.98 3 18 C1.68 18 0.36 18 -1 18 C-1.66 15.69 -2.32 13.38 -3 11 C-2.195625 11.061875 -1.39125 11.12375 -0.5625 11.1875 C3.97648733 10.94860593 7.76901601 9.57956736 12 8 C11.38511719 7.73445312 10.77023438 7.46890625 10.13671875 7.1953125 C9.32847656 6.84210938 8.52023438 6.48890625 7.6875 6.125 C6.88699219 5.77695313 6.08648437 5.42890625 5.26171875 5.0703125 C3 4 3 4 0 2 C0 1.34 0 0.68 0 0 Z " fill="#7B746B" transform="translate(81,220)"/>
<path d="M0 0 C0 1.32 0 2.64 0 4 C-2.2034806 5.1560727 -4.41203156 6.29984721 -6.625 7.4375 C-7.24246094 7.76298828 -7.85992187 8.08847656 -8.49609375 8.42382812 C-12.33285611 10.38259628 -15.71743908 11.53221258 -20 12 C-20.33 10.35 -20.66 8.7 -21 7 C-19.94039062 6.50628906 -18.88078125 6.01257813 -17.7890625 5.50390625 C-16.40103493 4.85678529 -15.01301446 4.20964908 -13.625 3.5625 C-12.57699219 3.07426758 -12.57699219 3.07426758 -11.5078125 2.57617188 C-3.64124255 -1.09237277 -3.64124255 -1.09237277 0 0 Z " fill="#D5D5D5" transform="translate(256,123)"/>
<path d="M0 0 C-0.33 0.99 -0.66 1.98 -1 3 C-5.455 3.495 -5.455 3.495 -10 4 C-10.33 4.99 -10.66 5.98 -11 7 C-12.0725 7.721875 -13.145 8.44375 -14.25 9.1875 C-18.99547708 12.44879495 -22.22151641 16.61503802 -23.52734375 22.29296875 C-23.77194166 24.18608952 -23.89788624 26.0938764 -24 28 C-24.99 28 -25.98 28 -27 28 C-27.55181938 21.37816743 -26.83336324 16.528646 -23 11 C-16.94258333 4.94258333 -8.6363615 0 0 0 Z " fill="#555352" transform="translate(87,191)"/>
<path d="M0 0 C2.125 0.375 2.125 0.375 4 1 C4.62004175 10.98956159 4.62004175 10.98956159 2.3125 14.75 C0 16 0 16 -2.6875 15.8125 C-5 15 -5 15 -6 14 C-6.61444107 8.71580679 -5.20384448 6.14615169 -2 2 C-1.34 1.34 -0.68 0.68 0 0 Z " fill="#464646" transform="translate(103,187)"/>
<path d="M0 0 C-0.125 1.875 -0.125 1.875 -1 4 C-3.5 5.125 -3.5 5.125 -7 6 C-8.10021484 6.2784375 -8.10021484 6.2784375 -9.22265625 6.5625 C-13.20581052 7.52005295 -16.8752079 8.26611562 -21 8 C-21.33 6.35 -21.66 4.7 -22 3 C-15.01412415 0.35669562 -7.37388886 -1.88014164 0 0 Z " fill="#D5D5D5" transform="translate(237,86)"/>
<path d="M0 0 C1.14926266 0.95421808 2.29430541 1.91352045 3.4375 2.875 C4.39462891 3.67550781 4.39462891 3.67550781 5.37109375 4.4921875 C7 6 7 6 8 8 C7.22265625 10.1640625 7.22265625 10.1640625 6.0625 12.625 C5.49208984 13.85089844 5.49208984 13.85089844 4.91015625 15.1015625 C4.60980469 15.72804687 4.30945313 16.35453125 4 17 C0.74986515 16.27625863 -0.95301229 15.72931695 -3 13 C-4.17884539 10.24936075 -4.27319074 8.68680663 -3.1640625 5.8984375 C-2.16555052 3.89433189 -1.12057013 1.93815349 0 0 Z " fill="#9F9F9F" transform="translate(154,212)"/>
<path d="M0 0 C4.82028488 -0.09246071 9.358392 0.2322891 14.125 0.9375 C21.0730607 1.91424632 27.99961621 2.5514088 35 3 C34.34 4.32 33.68 5.64 33 7 C22.08698516 6.57915235 11.68441211 5.25907118 1 3 C0.67 2.01 0.34 1.02 0 0 Z " fill="#6E6E6E" transform="translate(76,79)"/>
<path d="M0 0 C1.43717034 0.59882097 2.85743542 1.24121771 4.25 1.9375 C3.94181644 3.25102023 3.62832335 4.56329572 3.3125 5.875 C3.13847656 6.60589844 2.96445313 7.33679688 2.78515625 8.08984375 C2.25 9.9375 2.25 9.9375 1.25 10.9375 C-0.77408755 10.84747602 -2.79544287 10.69108962 -4.8125 10.5 C-5.91722656 10.39816406 -7.02195312 10.29632813 -8.16015625 10.19140625 C-9.01480469 10.10761719 -9.86945313 10.02382812 -10.75 9.9375 C-8.62479807 5.31443039 -5.5487781 -0.12610859 0 0 Z " fill="#969696" transform="translate(116.75,218.0625)"/>
<path d="M0 0 C1.98 0 3.96 0 6 0 C3.375 4.875 3.375 4.875 0 6 C-0.598125 6.763125 -1.19625 7.52625 -1.8125 8.3125 C-4.3404931 11.4183201 -6.48626074 13.06519363 -10 15 C-12.78582574 15.28139654 -15.12356255 15.38863832 -17.875 15.25 C-18.56335938 15.23195313 -19.25171875 15.21390625 -19.9609375 15.1953125 C-21.6412381 15.14863748 -23.32081163 15.07690939 -25 15 C-25.66 13.68 -26.32 12.36 -27 11 C-26.0821875 11.04640625 -25.164375 11.0928125 -24.21875 11.140625 C-13.93658948 11.48360243 -13.93658948 11.48360243 -5 7 C-2.88109061 4.71809758 -1.38326731 2.76653461 0 0 Z " fill="#676665" transform="translate(170,248)"/>
<path d="M0 0 C0 1.32 0 2.64 0 4 C-5.89738492 6.29342747 -10.66606918 7.34548714 -17 7 C-17.33 5.68 -17.66 4.36 -18 3 C-16.58398286 2.51891725 -15.16715563 2.04021859 -13.75 1.5625 C-12.96109375 1.29566406 -12.1721875 1.02882812 -11.359375 0.75390625 C-7.04414438 -0.62496711 -4.47560027 -1.11890007 0 0 Z " fill="#D5D5D5" transform="translate(251,167)"/>
<path d="M0 0 C2.55454165 3.16276585 4.59970739 6.16762024 6 10 C5.65940656 12.85892068 4.90413702 15.24000279 4 18 C0.63408134 16.55746343 -1.51047079 14.66735273 -4 12 C-3.71125 11.319375 -3.4225 10.63875 -3.125 9.9375 C-1.87402645 6.67106907 -0.92552045 3.37153877 0 0 Z " fill="#9D9D9D" transform="translate(163,221)"/>
<path d="M0 0 C0 0.66 0 1.32 0 2 C-2.19068879 1.51318027 -4.04715765 0.97642118 -6.0625 -0.03125 C-10.17745462 -1.3883095 -14.01254561 -1.213239 -18.3125 -1.125 C-19.56643555 -1.11146484 -19.56643555 -1.11146484 -20.84570312 -1.09765625 C-22.89725969 -1.07420989 -24.94866777 -1.03834266 -27 -1 C-27 -0.34 -27 0.32 -27 1 C-28.79036458 1.9765625 -30.58072917 2.953125 -32.37109375 3.9296875 C-34.16618315 4.91410024 -34.16618315 4.91410024 -35 7 C-35.66 7 -36.32 7 -37 7 C-36.71711523 3.60538272 -36.25867941 2.25867941 -33.8125 -0.1875 C-23.36941104 -6.91749066 -10.75221786 -4.91529959 0 0 Z " fill="#51504F" transform="translate(88,185)"/>
<path d="M0 0 C3.82097239 0.53069061 6.06171403 1.49701566 9 4 C8.34 4 7.68 4 7 4 C6.87625 4.7425 6.7525 5.485 6.625 6.25 C6.04513299 8.80141485 5.26291261 10.7267573 4 13 C1.03 12.505 1.03 12.505 -2 12 C-3.12377697 8.69564916 -2.89554742 6.9493138 -1.5625 3.75 C-1.27503906 3.04359375 -0.98757812 2.3371875 -0.69140625 1.609375 C-0.46324219 1.07828125 -0.23507813 0.5471875 0 0 Z " fill="#9D9D9D" transform="translate(144,207)"/>
<path d="M0 0 C0 5.3768175 -3.20801242 9.84596096 -6.1875 14.1875 C-7.95362243 16.92803481 -8.62318054 18.7970346 -9 22 C-9.99 22 -10.98 22 -12 22 C-12 21.34 -12 20.68 -12 20 C-13.32 20 -14.64 20 -16 20 C-16 19.01 -16 18.02 -16 17 C-15.41089844 16.76925781 -14.82179688 16.53851563 -14.21484375 16.30078125 C-11.43586558 14.66868296 -10.3113525 12.88145986 -8.5625 10.1875 C-5.97460887 6.33355006 -3.42810976 3.11646342 0 0 Z " fill="#7A736C" transform="translate(117,235)"/>
<path d="M0 0 C0.38218767 1.65614657 0.71395102 3.32457024 1 5 C0 6 0 6 -3.16015625 6.09765625 C-5.09181641 6.08025391 -5.09181641 6.08025391 -7.0625 6.0625 C-8.35285156 6.05347656 -9.64320313 6.04445313 -10.97265625 6.03515625 C-11.97167969 6.02355469 -12.97070312 6.01195313 -14 6 C-13.67 4.35 -13.34 2.7 -13 1 C-8.59085217 -0.10228696 -4.51617599 -0.07654536 0 0 Z " fill="#D6D6D6" transform="translate(207,89)"/>
<path d="M0 0 C1.65322266 0.01740234 1.65322266 0.01740234 3.33984375 0.03515625 C4.99693359 0.04869141 4.99693359 0.04869141 6.6875 0.0625 C7.54214844 0.07410156 8.39679688 0.08570313 9.27734375 0.09765625 C9.65953142 1.75380282 9.99129477 3.42222649 10.27734375 5.09765625 C9.27734375 6.09765625 9.27734375 6.09765625 6.5546875 6.1953125 C4.90146484 6.17791016 4.90146484 6.17791016 3.21484375 6.16015625 C1.55775391 6.14662109 1.55775391 6.14662109 -0.1328125 6.1328125 C-0.98746094 6.12121094 -1.84210938 6.10960937 -2.72265625 6.09765625 C-3.10484392 4.44150968 -3.43660727 2.77308601 -3.72265625 1.09765625 C-2.72265625 0.09765625 -2.72265625 0.09765625 0 0 Z " fill="#D5D5D5" transform="translate(175.72265625,50.90234375)"/>
<path d="M0 0 C0.33 0.66 0.66 1.32 1 2 C1.66 2.33 2.32 2.66 3 3 C-5.19365006 9.61314903 -11.38955907 11.81739693 -22 11 C-25.6875 10 -25.6875 10 -28 9 C-28 8.01 -28 7.02 -28 6 C-26.845 6.33 -25.69 6.66 -24.5 7 C-16.32016219 8.96603119 -11.51337602 8.20735946 -4.1015625 4.38671875 C-1.73120292 3.01819955 -1.73120292 3.01819955 0 0 Z " fill="#5E5E5E" transform="translate(164,241)"/>
<path d="M0 0 C4.95 0 9.9 0 15 0 C15.33 1.32 15.66 2.64 16 4 C14.05909174 5.94090826 10.52706098 5.39919435 7.9375 5.5625 C6.64714844 5.64628906 5.35679687 5.73007813 4.02734375 5.81640625 C3.02832031 5.87699219 2.02929688 5.93757812 1 6 C0.67 4.02 0.34 2.04 0 0 Z " fill="#D7D7D7" transform="translate(171,238)"/>
<path d="M0 0 C-6.16206299 5.17613291 -11.50584426 6.3345021 -19.3515625 6.30078125 C-22.25501985 5.97103757 -24.41186462 5.35763593 -27 4 C-27.33 3.01 -27.66 2.02 -28 1 C-26.948125 1.24169922 -26.948125 1.24169922 -25.875 1.48828125 C-22.86446692 2.02412342 -20.05637507 2.16800781 -17 2.1875 C-15.989375 2.20167969 -14.97875 2.21585938 -13.9375 2.23046875 C-8.91585348 1.83648319 -5.22003146 -0.24279216 0 0 Z " fill="#5B5B5B" transform="translate(158,234)"/>
<path d="M0 0 C1.32 0.33 2.64 0.66 4 1 C3.54915507 3.58484426 3.08964737 6.1676329 2.625 8.75 C2.49867188 9.47960937 2.37234375 10.20921875 2.2421875 10.9609375 C1.58165926 14.5938428 0.92552338 17.8187005 -1 21 C-1.66 21 -2.32 21 -3 21 C-2.69385143 17.87434338 -2.37900284 14.74962377 -2.0625 11.625 C-1.97548828 10.73554688 -1.88847656 9.84609375 -1.79882812 8.9296875 C-1.71181641 8.07890625 -1.62480469 7.228125 -1.53515625 6.3515625 C-1.456604 5.56604004 -1.37805176 4.78051758 -1.29711914 3.97119141 C-1 2 -1 2 0 0 Z " fill="#575556" transform="translate(158,278)"/>
<path d="M0 0 C1.19109375 0.00773438 1.19109375 0.00773438 2.40625 0.015625 C3.2003125 0.01046875 3.994375 0.0053125 4.8125 0 C6.90625 0.265625 6.90625 0.265625 8.90625 2.265625 C8.57625 3.585625 8.24625 4.905625 7.90625 6.265625 C4.27625 6.265625 0.64625 6.265625 -3.09375 6.265625 C-3.42375 4.945625 -3.75375 3.625625 -4.09375 2.265625 C-2.09375 0.265625 -2.09375 0.265625 0 0 Z " fill="#D4D4D4" transform="translate(218.09375,168.734375)"/>
<path d="M0 0 C0.38218767 1.65614657 0.71395102 3.32457024 1 5 C0 6 0 6 -2.50390625 6.09765625 C-4.01791016 6.08025391 -4.01791016 6.08025391 -5.5625 6.0625 C-6.57441406 6.05347656 -7.58632812 6.04445312 -8.62890625 6.03515625 C-9.41136719 6.02355469 -10.19382813 6.01195312 -11 6 C-11.33 4.35 -11.66 2.7 -12 1 C-7.93631321 0.22596442 -4.13574827 -0.0984702 0 0 Z " fill="#D5D5D5" transform="translate(229,131)"/>
<path d="M0 0 C1.258125 -0.04125 2.51625 -0.0825 3.8125 -0.125 C4.52019531 -0.14820312 5.22789062 -0.17140625 5.95703125 -0.1953125 C8 0 8 0 11 2 C11 3.32 11 4.64 11 6 C9.37536158 6.05395478 7.75021459 6.09277195 6.125 6.125 C5.22007812 6.14820313 4.31515625 6.17140625 3.3828125 6.1953125 C1 6 1 6 -1 4 C-0.625 1.875 -0.625 1.875 0 0 Z " fill="#D6D6D6" transform="translate(169,25)"/>
<path d="M0 0 C3.93370357 0.56195765 6.83175607 1.55592611 10 4 C10 5.32 10 6.64 10 8 C5.32538149 8.32613618 2.83325617 7.70582788 -1 5 C-0.67 3.35 -0.34 1.7 0 0 Z " fill="#D5D5D5" transform="translate(187,29)"/>
<path d="M0 0 C0.99 0 1.98 0 3 0 C3 3 3 3 1.35546875 4.71875 C0.64003906 5.3065625 -0.07539062 5.894375 -0.8125 6.5 C-3.78935332 8.94879989 -3.78935332 8.94879989 -6.5 11.67578125 C-9.21467478 14.07233008 -12.49461783 13.71267359 -16 14 C-15.34 13.34 -14.68 12.68 -14 12 C-13.01 12 -12.02 12 -11 12 C-10.7421875 11.40703125 -10.484375 10.8140625 -10.21875 10.203125 C-8.90230105 7.82339035 -7.57419218 6.49021208 -5.5 4.75 C-4.8915625 4.22921875 -4.283125 3.7084375 -3.65625 3.171875 C-2 2 -2 2 0 2 C0 1.34 0 0.68 0 0 Z " fill="#454544" transform="translate(113,215)"/>
<path d="M0 0 C0.66 0.33 1.32 0.66 2 1 C0.64905419 5.05283743 -1.37995418 5.87056128 -5 8 C-8.80236334 9.52094534 -12.96654546 9.06722424 -17 9 C-17 8.01 -17 7.02 -17 6 C-16.443125 5.98582031 -15.88625 5.97164063 -15.3125 5.95703125 C-9.67367279 5.60460455 -6.19024767 4.29670638 -1.62890625 0.9609375 C-1.09136719 0.64382813 -0.55382812 0.32671875 0 0 Z " fill="#676563" transform="translate(168,264)"/>
<path d="M0 0 C7.26 0 14.52 0 22 0 C17.24646865 3.1690209 13.78952434 3.00741234 8.3125 2.5625 C7.2596582 2.48418945 7.2596582 2.48418945 6.18554688 2.40429688 C4.45661946 2.27492135 2.72824645 2.13817469 1 2 C1 3.98 1 5.96 1 8 C0.01 7.34 -0.98 6.68 -2 6 C-1.34 4.02 -0.68 2.04 0 0 Z " fill="#ABABAB" transform="translate(170,236)"/>
<path d="M0 0 C-0.66 0 -1.32 0 -2 0 C-2 0.66 -2 1.32 -2 2 C-4.90600261 3.25664978 -6.79604584 4 -10 4 C-10 4.99 -10 5.98 -10 7 C-11.32 7 -12.64 7 -14 7 C-14.66 4.69 -15.32 2.38 -16 0 C-15.39671875 0.01160156 -14.7934375 0.02320313 -14.171875 0.03515625 C-13.37265625 0.04417969 -12.5734375 0.05320313 -11.75 0.0625 C-10.96109375 0.07410156 -10.1721875 0.08570313 -9.359375 0.09765625 C-7.01639655 0.08701023 -7.01639655 0.08701023 -4.890625 -0.56640625 C-3 -1 -3 -1 0 0 Z " fill="#5F5A54" transform="translate(94,231)"/>
<path d="M0 0 C0.66 0 1.32 0 2 0 C2.33 1.65 2.66 3.3 3 5 C2.34 5 1.68 5 1 5 C0.87625 6.03125 0.7525 7.0625 0.625 8.125 C0.05759142 11.64293321 -0.66518398 14.70221925 -2 18 C-2.66 18.33 -3.32 18.66 -4 19 C-3.5547115 13.72684667 -2.91626837 8.98229776 -1 4 C-1.66 3.67 -2.32 3.34 -3 3 C-2.34 3 -1.68 3 -1 3 C-0.67 2.01 -0.34 1.02 0 0 Z " fill="#414141" transform="translate(122,216)"/>
<path d="M0 0 C0.66 1.32 1.32 2.64 2 4 C4.53770003 5.28254644 4.53770003 5.28254644 7 6 C7 7.32 7 8.64 7 10 C4.03 9.67 1.06 9.34 -2 9 C-1.34 6.03 -0.68 3.06 0 0 Z " fill="#6F6F6F" transform="translate(122,225)"/>
<path d="M0 0 C2.50356732 3.75535098 1.9608592 4.86889414 1.125 9.1875 C0.92132813 10.27417969 0.71765625 11.36085937 0.5078125 12.48046875 C0.34023438 13.31191406 0.17265625 14.14335937 0 15 C-0.99 15 -1.98 15 -3 15 C-3.35050464 9.158256 -3.16727335 5.1468192 0 0 Z " fill="#767271" transform="translate(63,204)"/>
<path d="M0 0 C5.94 0.99 5.94 0.99 12 2 C10.38262276 5.23475448 9.52370777 6.70572021 7 9 C6.6596875 8.1646875 6.6596875 8.1646875 6.3125 7.3125 C4.64103234 4.36753316 2.44723648 2.31843456 0 0 Z " fill="#9D9687" transform="translate(106,231)"/>
<path d="M0 0 C-3.42042384 1.94610322 -6.79199266 2.73619706 -10.625 3.5625 C-14.93738381 4.42572431 -14.93738381 4.42572431 -19 6 C-19 5.34 -19 4.68 -19 4 C-20.32 3.67 -21.64 3.34 -23 3 C-20.29273634 2.4935186 -17.58442876 1.994649 -14.875 1.5 C-13.73417969 1.28537109 -13.73417969 1.28537109 -12.5703125 1.06640625 C-8.31957086 0.29687544 -4.34140803 -0.16644376 0 0 Z " fill="#9F9683" transform="translate(232,225)"/>
<path d="M0 0 C2.475 0.99 2.475 0.99 5 2 C0.7172612 4.8551592 -2.14458058 5.11672494 -7.1875 5.0625 C-8.81751953 5.04896484 -8.81751953 5.04896484 -10.48046875 5.03515625 C-11.31191406 5.02355469 -12.14335937 5.01195312 -13 5 C-13 4.34 -13 3.68 -13 3 C-6.565 2.505 -6.565 2.505 0 2 C0 1.34 0 0.68 0 0 Z " fill="#5B5B5B" transform="translate(141,223)"/>
<path d="M0 0 C-0.33 0.99 -0.66 1.98 -1 3 C-3.328125 3.87890625 -3.328125 3.87890625 -6.25 4.5625 C-9.98927763 5.45689478 -13.45859482 6.49425656 -17 8 C-12.2452644 2.50233697 -7.34527203 0 0 0 Z " fill="#2E2E2E" transform="translate(87,191)"/>
<path d="M0 0 C0.99 0.33 1.98 0.66 3 1 C3 1.99 3 2.98 3 4 C3.33 4.99 3.66 5.98 4 7 C4.11953769 8.97654185 4.17526196 10.95738456 4.1875 12.9375 C4.20167969 13.97777344 4.21585938 15.01804688 4.23046875 16.08984375 C4.00392282 18.95046613 3.47733619 20.57670151 2 23 C1 20 1 20 2 17 C2.15754704 15.04322445 2.15754704 15.04322445 2.125 13 C2.12757813 12.319375 2.13015625 11.63875 2.1328125 10.9375 C2.06631126 8.78125219 2.06631126 8.78125219 1 6 C0.01 5.34 -0.98 4.68 -2 4 C-1.34 3.67 -0.68 3.34 0 3 C0 2.01 0 1.02 0 0 Z " fill="#B9B099" transform="translate(242,194)"/>
<path d="M0 0 C3.96 0 7.92 0 12 0 C12 0.66 12 1.32 12 2 C9.375 3.6875 9.375 3.6875 6 5 C2.625 3.6875 2.625 3.6875 0 2 C0 1.34 0 0.68 0 0 Z " fill="#B5B5B5" transform="translate(200,203)"/>
<path d="M0 0 C2.46104938 0.25448807 4.91743305 0.52772719 7.375 0.8125 C8.07367188 0.88275391 8.77234375 0.95300781 9.4921875 1.02539062 C11.34332338 1.24788292 13.17538205 1.61662522 15 2 C15.99 3.485 15.99 3.485 17 5 C15.27119018 5.05449838 13.54187288 5.09301688 11.8125 5.125 C10.84957031 5.14820313 9.88664063 5.17140625 8.89453125 5.1953125 C5.8147892 4.98750265 3.7170259 4.45744551 1 3 C0.67 2.01 0.34 1.02 0 0 Z " fill="#6B6B6B" transform="translate(130,235)"/>
<path d="M0 0 C0 1.32 0 2.64 0 4 C-2.97 3.67 -5.94 3.34 -9 3 C-9 2.34 -9 1.68 -9 1 C-9.66 0.67 -10.32 0.34 -11 0 C-7.01803543 -1.05404945 -4.01804691 -0.84098656 0 0 Z " fill="#6C6B6B" transform="translate(88,195)"/>
<path d="M0 0 C7.83534611 -0.61187085 13.8036691 0.93540281 21 4 C21 4.66 21 5.32 21 6 C18.17001938 5.33712166 15.48364147 4.48332427 12.75 3.5 C8.48032806 2.04845316 4.48439579 1.40767234 0 1 C0 0.67 0 0.34 0 0 Z " fill="#252525" transform="translate(67,181)"/>
<path d="M0 0 C0.66 0 1.32 0 2 0 C1.50769231 7.38461538 1.50769231 7.38461538 -1.0625 10.5 C-1.701875 10.995 -2.34125 11.49 -3 12 C-3.66 11.01 -4.32 10.02 -5 9 C-4.54625 8.62875 -4.0925 8.2575 -3.625 7.875 C-1.52970606 5.45735315 -0.87986715 3.04569398 0 0 Z " fill="#5F5F5F" transform="translate(161,220)"/>
<path d="M0 0 C-1.28965176 1.37562854 -2.62689293 2.70766393 -4 4 C-4.66 4 -5.32 4 -6 4 C-6 4.66 -6 5.32 -6 6 C-6.66 6 -7.32 6 -8 6 C-8.12375 5.360625 -8.2475 4.72125 -8.375 4.0625 C-8.684375 3.0415625 -8.684375 3.0415625 -9 2 C-9.66 1.67 -10.32 1.34 -11 1 C-9.5437328 0.63743142 -8.08488815 0.28520207 -6.625 -0.0625 C-5.40683594 -0.35833984 -5.40683594 -0.35833984 -4.1640625 -0.66015625 C-2 -1 -2 -1 0 0 Z " fill="#918C85" transform="translate(264,156)"/>
<path d="M0 0 C1.33895632 1.66215268 2.67130142 3.32963607 4 5 C4.8971875 6.051875 4.8971875 6.051875 5.8125 7.125 C6.204375 7.74375 6.59625 8.3625 7 9 C6.67 9.99 6.34 10.98 6 12 C4 11 4 11 3.1875 9.0625 C1.60758259 6.31843292 -0.0515206 5.93109876 -3 5 C-2.01 3.35 -1.02 1.7 0 0 Z " fill="#515151" transform="translate(150,222)"/>
<path d="M0 0 C0.99 0.33 1.98 0.66 3 1 C1.84414715 4.91211733 0.64465038 7.8745041 -2 11 C-2.95465783 8.83032311 -3.14401212 7.43671207 -2.3984375 5.17578125 C-1.64129615 3.4315257 -0.82390802 1.71372869 0 0 Z " fill="#5E5E5E" transform="translate(151,211)"/>
<path d="M0 0 C3.3 0.99 6.6 1.98 10 3 C7.11912454 5.40072955 4.43595166 7.47291037 1 9 C1 7 1 7 2.5 5.375 C2.995 4.92125 3.49 4.4675 4 4 C2.68 3.34 1.36 2.68 0 2 C0 1.34 0 0.68 0 0 Z " fill="#7F7A72" transform="translate(67,190)"/>
<path d="M0 0 C4.29 1.32 8.58 2.64 13 4 C12.34 4.66 11.68 5.32 11 6 C6.49354269 5.74964126 3.25629805 5.25629805 0 2 C0 1.34 0 0.68 0 0 Z " fill="#847E73" transform="translate(81,220)"/>
<path d="M0 0 C2.97 0.495 2.97 0.495 6 1 C5.34 1.66 4.68 2.32 4 3 C4.66 3.33 5.32 3.66 6 4 C6 4.99 6 5.98 6 7 C4.68 7 3.36 7 2 7 C1.34 4.69 0.68 2.38 0 0 Z " fill="#8D867E" transform="translate(78,231)"/>
<path d="M0 0 C0.99 0 1.98 0 3 0 C3 1.98 3 3.96 3 6 C1.68 6 0.36 6 -1 6 C-1.042721 4.33388095 -1.04063832 2.66617115 -1 1 C-0.67 0.67 -0.34 0.34 0 0 Z " fill="#8F8F8F" transform="translate(103,190)"/>
<path d="M0 0 C1.39195915 4.17587745 -0.17676781 6.13474776 -2 10 C-2.66 10 -3.32 10 -4 10 C-3.67 7.36 -3.34 4.72 -3 2 C-2.34 2 -1.68 2 -1 2 C-0.67 1.34 -0.34 0.68 0 0 Z " fill="#817E80" transform="translate(159,289)"/>
<path d="M0 0 C3.96 0.33 7.92 0.66 12 1 C11.67 1.66 11.34 2.32 11 3 C5.04296875 3.29296875 5.04296875 3.29296875 3 3 C2.01 2.01 1.02 1.02 0 0 Z " fill="#BFBFBF" transform="translate(168,192)"/>
<path d="M0 0 C-2.22189824 2.22189824 -4.08482708 2.92598892 -7 4 C-7 3.34 -7 2.68 -7 2 C-8.98 2 -10.96 2 -13 2 C-13 1.67 -13 1.34 -13 1 C-8.61414671 0.29826347 -4.44209357 -0.10834375 0 0 Z " fill="#ACAAA4" transform="translate(210,234)"/>
<path d="M0 0 C0.66 0.33 1.32 0.66 2 1 C2 4 2 4 0.625 5.6875 C-1 7 -1 7 -3 7 C-2.25 2.25 -2.25 2.25 0 0 Z " fill="#8C8487" transform="translate(54,185)"/>
<path d="M0 0 C0 3.29223784 -0.50518132 5.08510357 -2 8 C-4.125 9.3125 -4.125 9.3125 -6 10 C-4.6302836 6.00499382 -2.74277578 3.19990508 0 0 Z " fill="#555250" transform="translate(117,235)"/>
<path d="M0 0 C-2 3 -2 3 -3.9453125 3.51171875 C-4.66460937 3.56972656 -5.38390625 3.62773438 -6.125 3.6875 C-8.043125 3.8421875 -8.043125 3.8421875 -10 4 C-7.16124653 -0.25813021 -4.8137938 -0.13010254 0 0 Z " fill="#928D82" transform="translate(92,48)"/>
<path d="M0 0 C0.66 0 1.32 0 2 0 C1.25 5.75 1.25 5.75 -1 8 C-2.2077558 4.37673261 -1.54311128 3.35853631 0 0 Z " fill="#5F5F5F" transform="translate(168,234)"/>
<path d="M0 0 C1.98 0 3.96 0 6 0 C5.34 1.32 4.68 2.64 4 4 C2.68 3.34 1.36 2.68 0 2 C0 1.34 0 0.68 0 0 Z " fill="#929292" transform="translate(112,233)"/>
<path d="" fill="#C2C2C2" transform="translate(0,0)"/>
<path d="" fill="#C2C2C2" transform="translate(0,0)"/>
<path d="" fill="#C2C2C2" transform="translate(0,0)"/>
<path d="" fill="#C2C2C2" transform="translate(0,0)"/>
<path d="" fill="#C2C2C2" transform="translate(0,0)"/>
<path d="" fill="#C2C2C2" transform="translate(0,0)"/>
<path d="" fill="#C2C2C2" transform="translate(0,0)"/>
<path d="" fill="#C2C2C2" transform="translate(0,0)"/>
<path d="" fill="#C2C2C2" transform="translate(0,0)"/>
<path d="" fill="#C2C2C2" transform="translate(0,0)"/>
<path d="" fill="#C2C2C2" transform="translate(0,0)"/>
<path d="" fill="#C2C2C2" transform="translate(0,0)"/>
<path d="" fill="#C2C2C2" transform="translate(0,0)"/>
<path d="" fill="#C2C2C2" transform="translate(0,0)"/>
<path d="" fill="#C2C2C2" transform="translate(0,0)"/>
<path d="" fill="#C2C2C2" transform="translate(0,0)"/>
<path d="" fill="#C2C2C2" transform="translate(0,0)"/>
<path d="" fill="#C2C2C2" transform="translate(0,0)"/>
<path d="" fill="#C2C2C2" transform="translate(0,0)"/>
<path d="" fill="#C2C2C2" transform="translate(0,0)"/>
<path d="" fill="#C2C2C2" transform="translate(0,0)"/>
<path d="" fill="#C2C2C2" transform="translate(0,0)"/>
<path d="" fill="#C2C2C2" transform="translate(0,0)"/>
<path d="" fill="#C2C2C2" transform="translate(0,0)"/>
<path d="" fill="#C2C2C2" transform="translate(0,0)"/>
<path d="" fill="#C2C2C2" transform="translate(0,0)"/>
<path d="" fill="#C2C2C2" transform="translate(0,0)"/>
<path d="" fill="#C2C2C2" transform="translate(0,0)"/>
<path d="" fill="#C2C2C2" transform="translate(0,0)"/>
<path d="" fill="#C2C2C2" transform="translate(0,0)"/>
<path d="" fill="#C2C2C2" transform="translate(0,0)"/>
<path d="" fill="#C2C2C2" transform="translate(0,0)"/>
<path d="" fill="#C2C2C2" transform="translate(0,0)"/>
<path d="" fill="#C2C2C2" transform="translate(0,0)"/>
<path d="" fill="#C2C2C2" transform="translate(0,0)"/>
<path d="" fill="#C2C2C2" transform="translate(0,0)"/>
<path d="" fill="#C2C2C2" transform="translate(0,0)"/>
<path d="" fill="#C2C2C2" transform="translate(0,0)"/>
<path d="" fill="#C2C2C2" transform="translate(0,0)"/>
<path d="" fill="#C2C2C2" transform="translate(0,0)"/>
<path d="" fill="#C2C2C2" transform="translate(0,0)"/>
<path d="" fill="#C2C2C2" transform="translate(0,0)"/>
</svg>
